<svg width="103" height="141" viewBox="0 0 103 141" fill="none" xmlns="http://www.w3.org/2000/svg">
<path d="M8.645 97.22V96.8H13.16C14.26 96.8 15.08 97.055 15.62 97.565C16.17 98.065 16.445 98.735 16.445 99.575V99.92C16.445 100.76 16.17 101.435 15.62 101.945C15.08 102.455 14.26 102.71 13.16 102.71H11.6V105.74C11.6 106.08 11.615 106.285 11.645 106.355C11.675 106.415 11.77 106.455 11.93 106.475L13.055 106.58V107H8.645V106.58L9.47 106.475C9.63 106.455 9.725 106.415 9.755 106.355C9.785 106.285 9.8 106.08 9.8 105.74V98.06C9.8 97.72 9.785 97.52 9.755 97.46C9.725 97.39 9.63 97.345 9.47 97.325L8.645 97.22ZM13.16 97.325H11.6V102.185H13.16C13.6 102.185 13.935 102.01 14.165 101.66C14.405 101.31 14.525 100.83 14.525 100.22V99.275C14.525 98.665 14.405 98.19 14.165 97.85C13.935 97.5 13.6 97.325 13.16 97.325ZM19.5598 99.815V99.395H22.3498V100.625C22.9598 99.705 23.6848 99.245 24.5248 99.245C24.8348 99.245 25.1348 99.345 25.4248 99.545C25.7148 99.735 25.9548 100.095 26.1448 100.625L24.8098 101.345C24.6698 100.935 24.5048 100.66 24.3148 100.52C24.1348 100.37 23.9398 100.295 23.7298 100.295C23.5098 100.295 23.2948 100.365 23.0848 100.505C22.8748 100.645 22.6598 100.905 22.4398 101.285V105.74C22.4398 106.08 22.4548 106.285 22.4848 106.355C22.5148 106.415 22.6098 106.455 22.7698 106.475L23.8948 106.58V107H19.5598V106.58L20.3848 106.475C20.5448 106.455 20.6398 106.415 20.6698 106.355C20.6998 106.285 20.7148 106.08 20.7148 105.74V100.655C20.7148 100.315 20.6998 100.115 20.6698 100.055C20.6398 99.985 20.5448 99.94 20.3848 99.92L19.5598 99.815ZM35.2838 105.215C35.1038 105.915 34.7688 106.415 34.2788 106.715C33.7888 107.005 33.2188 107.15 32.5688 107.15C31.3688 107.15 30.4688 106.805 29.8688 106.115C29.2688 105.415 28.9688 104.49 28.9688 103.34V103.04C28.9688 101.89 29.2488 100.97 29.8088 100.28C30.3788 99.59 31.1988 99.245 32.2688 99.245C32.8688 99.245 33.3988 99.365 33.8588 99.605C34.3288 99.835 34.6938 100.17 34.9538 100.61C35.2238 101.05 35.3588 101.585 35.3588 102.215C35.3588 102.365 35.3488 102.525 35.3288 102.695C35.3188 102.865 35.2938 103.035 35.2538 103.205H30.8138V103.64C30.8138 104.7 30.9638 105.465 31.2638 105.935C31.5638 106.395 32.0488 106.625 32.7188 106.625C33.1488 106.625 33.5138 106.5 33.8138 106.25C34.1138 105.99 34.2838 105.555 34.3238 104.945L35.2838 105.215ZM32.2688 99.77C31.7788 99.77 31.4138 99.995 31.1738 100.445C30.9338 100.895 30.8138 101.64 30.8138 102.68H33.5288C33.5688 102.48 33.5938 102.295 33.6038 102.125C33.6238 101.945 33.6338 101.78 33.6338 101.63C33.6338 100.99 33.5088 100.52 33.2588 100.22C33.0088 99.92 32.6788 99.77 32.2688 99.77ZM42.1283 104.165L41.0933 103.925C40.4233 103.765 39.9233 103.48 39.5933 103.07C39.2733 102.65 39.1133 102.155 39.1133 101.585C39.1133 101.165 39.2033 100.78 39.3833 100.43C39.5733 100.07 39.8683 99.785 40.2683 99.575C40.6683 99.355 41.1883 99.245 41.8283 99.245C42.5183 99.245 43.0783 99.355 43.5083 99.575C43.9383 99.795 44.2433 100.085 44.4233 100.445C44.6033 100.805 44.6583 101.19 44.5883 101.6L42.9383 101.9C43.0783 101.22 43.0383 100.695 42.8183 100.325C42.6083 99.955 42.2533 99.77 41.7533 99.77C41.4033 99.77 41.1133 99.875 40.8833 100.085C40.6533 100.285 40.5383 100.575 40.5383 100.955C40.5383 101.305 40.6383 101.615 40.8383 101.885C41.0383 102.145 41.3333 102.32 41.7233 102.41L42.7583 102.65C43.4983 102.82 44.0333 103.09 44.3633 103.46C44.6933 103.82 44.8583 104.27 44.8583 104.81C44.8583 105.48 44.6083 106.04 44.1083 106.49C43.6183 106.93 42.8833 107.15 41.9033 107.15C41.5633 107.15 41.1883 107.1 40.7783 107C40.3783 106.89 40.0083 106.695 39.6683 106.415C39.3383 106.135 39.0983 105.735 38.9483 105.215L39.9233 104.825C39.9933 105.485 40.2183 105.95 40.5983 106.22C40.9883 106.49 41.4233 106.625 41.9033 106.625C42.3533 106.625 42.7183 106.525 42.9983 106.325C43.2883 106.115 43.4333 105.815 43.4333 105.425C43.4333 105.155 43.3383 104.91 43.1483 104.69C42.9683 104.46 42.6283 104.285 42.1283 104.165ZM54.9303 105.215C54.7503 105.915 54.4153 106.415 53.9253 106.715C53.4353 107.005 52.8653 107.15 52.2153 107.15C51.0153 107.15 50.1153 106.805 49.5153 106.115C48.9153 105.415 48.6153 104.49 48.6153 103.34V103.04C48.6153 101.89 48.8953 100.97 49.4553 100.28C50.0253 99.59 50.8453 99.245 51.9153 99.245C52.5153 99.245 53.0453 99.365 53.5053 99.605C53.9753 99.835 54.3403 100.17 54.6003 100.61C54.8703 101.05 55.0053 101.585 55.0053 102.215C55.0053 102.365 54.9953 102.525 54.9753 102.695C54.9653 102.865 54.9403 103.035 54.9003 103.205H50.4603V103.64C50.4603 104.7 50.6103 105.465 50.9103 105.935C51.2103 106.395 51.6953 106.625 52.3653 106.625C52.7953 106.625 53.1603 106.5 53.4603 106.25C53.7603 105.99 53.9303 105.555 53.9703 104.945L54.9303 105.215ZM51.9153 99.77C51.4253 99.77 51.0603 99.995 50.8203 100.445C50.5803 100.895 50.4603 101.64 50.4603 102.68H53.1753C53.2153 102.48 53.2403 102.295 53.2503 102.125C53.2703 101.945 53.2803 101.78 53.2803 101.63C53.2803 100.99 53.1553 100.52 52.9053 100.22C52.6553 99.92 52.3253 99.77 51.9153 99.77ZM67.1898 106.58V107H63.1548V106.58L63.9798 106.475C64.1398 106.455 64.2348 106.415 64.2648 106.355C64.2948 106.285 64.3098 106.08 64.3098 105.74V101.96C64.3098 101.27 64.2048 100.77 63.9948 100.46C63.7948 100.14 63.4948 99.98 63.0948 99.98C62.9248 99.98 62.7248 100.025 62.4948 100.115C62.2748 100.195 62.0498 100.345 61.8198 100.565C61.5998 100.785 61.4048 101.11 61.2348 101.54V105.74C61.2348 106.08 61.2498 106.285 61.2798 106.355C61.3098 106.415 61.4048 106.455 61.5648 106.475L62.3898 106.58V107H58.3548V106.58L59.1798 106.475C59.3398 106.455 59.4348 106.415 59.4648 106.355C59.4948 106.285 59.5098 106.08 59.5098 105.74V100.655C59.5098 100.315 59.4948 100.115 59.4648 100.055C59.4348 99.985 59.3398 99.94 59.1798 99.92L58.3548 99.815V99.395H61.1448V100.715C61.4348 100.205 61.8048 99.835 62.2548 99.605C62.7148 99.365 63.1748 99.245 63.6348 99.245C64.3748 99.245 64.9598 99.48 65.3898 99.95C65.8198 100.42 66.0348 101.085 66.0348 101.945V105.74C66.0348 106.08 66.0498 106.285 66.0798 106.355C66.1098 106.415 66.2048 106.455 66.3648 106.475L67.1898 106.58ZM75.2905 105.44C75.1605 106.05 74.9105 106.49 74.5405 106.76C74.1805 107.02 73.7405 107.15 73.2205 107.15C72.6905 107.15 72.2555 107.035 71.9155 106.805C71.5755 106.565 71.3255 106.25 71.1655 105.86C71.0055 105.47 70.9255 105.055 70.9255 104.615V100.655C70.9255 100.315 70.9105 100.115 70.8805 100.055C70.8505 99.985 70.7555 99.94 70.5955 99.92L69.7705 99.815V99.395H70.9255V97.655L72.6505 97.31V99.395H75.0505V99.92H72.6505V104.915C72.6505 105.555 72.7305 106 72.8905 106.25C73.0505 106.49 73.2555 106.61 73.5055 106.61C73.7655 106.61 73.9655 106.51 74.1055 106.31C74.2555 106.11 74.3505 105.745 74.3905 105.215L75.2905 105.44ZM84.8834 105.215C84.7034 105.915 84.3684 106.415 83.8784 106.715C83.3884 107.005 82.8184 107.15 82.1684 107.15C80.9684 107.15 80.0684 106.805 79.4684 106.115C78.8684 105.415 78.5684 104.49 78.5684 103.34V103.04C78.5684 101.89 78.8484 100.97 79.4084 100.28C79.9784 99.59 80.7984 99.245 81.8684 99.245C82.4684 99.245 82.9984 99.365 83.4584 99.605C83.9284 99.835 84.2934 100.17 84.5534 100.61C84.8234 101.05 84.9584 101.585 84.9584 102.215C84.9584 102.365 84.9484 102.525 84.9284 102.695C84.9184 102.865 84.8934 103.035 84.8534 103.205H80.4134V103.64C80.4134 104.7 80.5634 105.465 80.8634 105.935C81.1634 106.395 81.6484 106.625 82.3184 106.625C82.7484 106.625 83.1134 106.5 83.4134 106.25C83.7134 105.99 83.8834 105.555 83.9234 104.945L84.8834 105.215ZM81.8684 99.77C81.3784 99.77 81.0134 99.995 80.7734 100.445C80.5334 100.895 80.4134 101.64 80.4134 102.68H83.1284C83.1684 102.48 83.1934 102.295 83.2034 102.125C83.2234 101.945 83.2334 101.78 83.2334 101.63C83.2334 100.99 83.1084 100.52 82.8584 100.22C82.6084 99.92 82.2784 99.77 81.8684 99.77ZM91.7279 104.165L90.6929 103.925C90.0229 103.765 89.5229 103.48 89.1929 103.07C88.8729 102.65 88.7129 102.155 88.7129 101.585C88.7129 101.165 88.8029 100.78 88.9829 100.43C89.1729 100.07 89.4679 99.785 89.8679 99.575C90.2679 99.355 90.7879 99.245 91.4279 99.245C92.1179 99.245 92.6779 99.355 93.1079 99.575C93.5379 99.795 93.8429 100.085 94.0229 100.445C94.2029 100.805 94.2579 101.19 94.1879 101.6L92.5379 101.9C92.6779 101.22 92.6379 100.695 92.4179 100.325C92.2079 99.955 91.8529 99.77 91.3529 99.77C91.0029 99.77 90.7129 99.875 90.4829 100.085C90.2529 100.285 90.1379 100.575 90.1379 100.955C90.1379 101.305 90.2379 101.615 90.4379 101.885C90.6379 102.145 90.9329 102.32 91.3229 102.41L92.3579 102.65C93.0979 102.82 93.6329 103.09 93.9629 103.46C94.2929 103.82 94.4579 104.27 94.4579 104.81C94.4579 105.48 94.2079 106.04 93.7079 106.49C93.2179 106.93 92.4829 107.15 91.5029 107.15C91.1629 107.15 90.7879 107.1 90.3779 107C89.9779 106.89 89.6079 106.695 89.2679 106.415C88.9379 106.135 88.6979 105.735 88.5479 105.215L89.5229 104.825C89.5929 105.485 89.8179 105.95 90.1979 106.22C90.5879 106.49 91.0229 106.625 91.5029 106.625C91.9529 106.625 92.3179 106.525 92.5979 106.325C92.8879 106.115 93.0329 105.815 93.0329 105.425C93.0329 105.155 92.9379 104.91 92.7479 104.69C92.5679 104.46 92.2279 104.285 91.7279 104.165Z" fill="#5429BD"/>
<path d="M28.7754 122.068H29.0754V124H23.7834V123.7L24.4434 123.64C24.5714 123.624 24.6474 123.592 24.6714 123.544C24.6954 123.496 24.7074 123.332 24.7074 123.052V116.788C24.7074 116.508 24.6954 116.344 24.6714 116.296C24.6474 116.24 24.5714 116.208 24.4434 116.2L23.7834 116.14V115.84H26.4114V116.14L25.7514 116.2C25.6234 116.208 25.5474 116.24 25.5234 116.296C25.4994 116.344 25.4874 116.508 25.4874 116.788V123.64H27.8034C28.0834 123.64 28.2514 123.624 28.3074 123.592C28.3714 123.552 28.4194 123.464 28.4514 123.328L28.7754 122.068ZM32.7942 116.596C32.6422 116.596 32.5142 116.544 32.4102 116.44C32.3062 116.336 32.2542 116.204 32.2542 116.044C32.2542 115.884 32.3062 115.756 32.4102 115.66C32.5142 115.556 32.6422 115.504 32.7942 115.504C32.9542 115.504 33.0862 115.556 33.1902 115.66C33.2942 115.756 33.3462 115.884 33.3462 116.044C33.3462 116.204 33.2942 116.336 33.1902 116.44C33.0862 116.544 32.9542 116.596 32.7942 116.596ZM31.5222 118.456V118.156H33.1662V123.052C33.1662 123.332 33.1782 123.496 33.2022 123.544C33.2262 123.592 33.3022 123.624 33.4302 123.64L34.0902 123.7V124H31.5222V123.7L32.1822 123.64C32.3102 123.624 32.3862 123.592 32.4102 123.544C32.4342 123.496 32.4462 123.332 32.4462 123.052V119.104C32.4462 118.824 32.4342 118.66 32.4102 118.612C32.3862 118.556 32.3102 118.524 32.1822 118.516L31.5222 118.456ZM39.2616 121.468L38.5776 121.288C38.1216 121.168 37.7656 120.976 37.5096 120.712C37.2616 120.44 37.1376 120.092 37.1376 119.668C37.1376 119.396 37.2016 119.136 37.3296 118.888C37.4656 118.64 37.6736 118.436 37.9536 118.276C38.2416 118.116 38.6056 118.036 39.0456 118.036C39.5576 118.036 39.9656 118.124 40.2696 118.3C40.5736 118.468 40.7856 118.692 40.9056 118.972C41.0336 119.244 41.0736 119.544 41.0256 119.872L40.3416 119.992C40.4296 119.472 40.3616 119.076 40.1376 118.804C39.9136 118.532 39.5456 118.396 39.0336 118.396C38.6256 118.396 38.3016 118.492 38.0616 118.684C37.8216 118.868 37.7016 119.144 37.7016 119.512C37.7016 119.76 37.7816 119.976 37.9416 120.16C38.1016 120.336 38.3936 120.48 38.8176 120.592L39.5136 120.772C40.0096 120.9 40.4096 121.1 40.7136 121.372C41.0176 121.644 41.1696 122.016 41.1696 122.488C41.1696 122.976 40.9936 123.372 40.6416 123.676C40.2896 123.972 39.8016 124.12 39.1776 124.12C38.6176 124.12 38.1456 123.992 37.7616 123.736C37.3776 123.48 37.1216 123.124 36.9936 122.668L37.5816 122.476C37.6936 122.964 37.8936 123.304 38.1816 123.496C38.4776 123.68 38.8176 123.772 39.2016 123.772C39.4176 123.772 39.6336 123.736 39.8496 123.664C40.0656 123.592 40.2456 123.472 40.3896 123.304C40.5336 123.136 40.6056 122.916 40.6056 122.644C40.6056 122.372 40.5056 122.14 40.3056 121.948C40.1056 121.756 39.7576 121.596 39.2616 121.468ZM48.0423 122.776C47.9143 123.232 47.7343 123.572 47.5023 123.796C47.2783 124.012 46.9703 124.12 46.5783 124.12C46.2183 124.12 45.9263 124.04 45.7023 123.88C45.4863 123.712 45.3263 123.5 45.2223 123.244C45.1263 122.988 45.0783 122.724 45.0783 122.452V119.104C45.0783 118.824 45.0663 118.66 45.0423 118.612C45.0263 118.556 44.9503 118.524 44.8143 118.516L44.1543 118.456V118.156H45.0783V116.452L45.7983 116.308V118.156H47.7783V118.516H45.7983V122.452C45.7983 122.948 45.8703 123.292 46.0143 123.484C46.1583 123.668 46.3583 123.76 46.6143 123.76C46.8703 123.76 47.0623 123.668 47.1903 123.484C47.3183 123.3 47.4143 123.016 47.4783 122.632L48.0423 122.776ZM55.5763 124.06C55.3043 124.06 55.0803 123.984 54.9043 123.832C54.7283 123.672 54.6203 123.452 54.5803 123.172C54.2843 123.508 53.9643 123.752 53.6203 123.904C53.2763 124.048 52.9363 124.12 52.6003 124.12C52.0403 124.12 51.6283 123.964 51.3643 123.652C51.1083 123.332 50.9803 122.96 50.9803 122.536C50.9803 122.064 51.1363 121.696 51.4483 121.432C51.7603 121.168 52.2923 121.036 53.0443 121.036H54.5683V120.064C54.5683 119.424 54.4443 118.988 54.1963 118.756C53.9483 118.516 53.6123 118.396 53.1883 118.396C52.9163 118.396 52.6763 118.444 52.4683 118.54C52.2603 118.628 52.1083 118.796 52.0123 119.044C51.9163 119.284 51.8923 119.632 51.9403 120.088L51.2443 119.968C51.1963 119.408 51.3403 118.948 51.6763 118.588C52.0123 118.22 52.5243 118.036 53.2123 118.036C53.7643 118.036 54.1883 118.132 54.4843 118.324C54.7883 118.508 54.9963 118.756 55.1083 119.068C55.2283 119.372 55.2883 119.704 55.2883 120.064V122.716C55.2883 123.124 55.3403 123.38 55.4443 123.484C55.5563 123.588 55.6763 123.64 55.8043 123.64C55.8683 123.64 55.9443 123.624 56.0323 123.592C56.1203 123.56 56.2083 123.504 56.2963 123.424L56.5123 123.712C56.4003 123.816 56.2683 123.9 56.1163 123.964C55.9643 124.028 55.7843 124.06 55.5763 124.06ZM52.8043 123.7C53.0363 123.7 53.3003 123.636 53.5963 123.508C53.9003 123.38 54.2243 123.096 54.5683 122.656V121.396H53.1403C52.6523 121.396 52.2963 121.484 52.0723 121.66C51.8483 121.828 51.7363 122.1 51.7363 122.476C51.7363 122.86 51.8243 123.16 52.0003 123.376C52.1763 123.592 52.4443 123.7 52.8043 123.7ZM69.5139 123.712V124H67.9179V123.088C67.6699 123.456 67.3859 123.72 67.0659 123.88C66.7459 124.04 66.4059 124.12 66.0459 124.12C65.3419 124.12 64.8059 123.864 64.4379 123.352C64.0699 122.84 63.8859 122.124 63.8859 121.204V120.964C63.8859 120.068 64.0979 119.356 64.5219 118.828C64.9539 118.3 65.5539 118.036 66.3219 118.036C66.9459 118.036 67.4619 118.256 67.8699 118.696V116.068C67.8699 115.788 67.8579 115.624 67.8339 115.576C67.8099 115.52 67.7339 115.488 67.6059 115.48L66.9459 115.42V115.12H68.5899V123.052C68.5899 123.332 68.6019 123.496 68.6259 123.544C68.6499 123.592 68.7259 123.624 68.8539 123.64L69.5139 123.712ZM64.7019 121.564C64.7019 122.324 64.8219 122.88 65.0619 123.232C65.3099 123.584 65.6539 123.76 66.0939 123.76C66.3739 123.76 66.6659 123.68 66.9699 123.52C67.2819 123.36 67.5819 123.04 67.8699 122.56V119.308C67.4939 118.7 66.9779 118.396 66.3219 118.396C65.7619 118.396 65.3499 118.592 65.0859 118.984C64.8299 119.376 64.7019 119.916 64.7019 120.604V121.564ZM77.1954 122.668C77.0514 123.204 76.7794 123.58 76.3794 123.796C75.9874 124.012 75.5594 124.12 75.0954 124.12C74.2634 124.12 73.6394 123.856 73.2234 123.328C72.8154 122.792 72.6114 122.08 72.6114 121.192V120.952C72.6114 120.072 72.8114 119.368 73.2114 118.84C73.6194 118.304 74.2114 118.036 74.9874 118.036C75.3954 118.036 75.7714 118.12 76.1154 118.288C76.4594 118.456 76.7354 118.708 76.9434 119.044C77.1514 119.38 77.2554 119.808 77.2554 120.328C77.2554 120.552 77.2314 120.796 77.1834 121.06H73.4274V121.432C73.4274 122.256 73.5594 122.852 73.8234 123.22C74.0954 123.58 74.5394 123.76 75.1554 123.76C75.5474 123.76 75.8674 123.668 76.1154 123.484C76.3634 123.3 76.5394 122.976 76.6434 122.512L77.1954 122.668ZM74.9874 118.396C74.4594 118.396 74.0674 118.576 73.8114 118.936C73.5554 119.288 73.4274 119.876 73.4274 120.7H76.4754C76.4834 120.604 76.4874 120.52 76.4874 120.448C76.4954 120.368 76.4994 120.296 76.4994 120.232C76.4994 119.576 76.3594 119.108 76.0794 118.828C75.7994 118.54 75.4354 118.396 74.9874 118.396ZM17.691 132.444V132.156H19.287V133.068C19.543 132.692 19.827 132.428 20.139 132.276C20.459 132.116 20.799 132.036 21.159 132.036C21.863 132.036 22.399 132.292 22.767 132.804C23.135 133.308 23.319 134.024 23.319 134.952V135.192C23.319 136.088 23.103 136.8 22.671 137.328C22.247 137.856 21.651 138.12 20.883 138.12C20.259 138.12 19.743 137.9 19.335 137.46V139.608C19.335 139.888 19.347 140.052 19.371 140.1C19.395 140.156 19.471 140.188 19.599 140.196L20.499 140.256V140.556H17.691V140.256L18.351 140.196C18.479 140.18 18.555 140.148 18.579 140.1C18.603 140.052 18.615 139.888 18.615 139.608V133.104C18.615 132.824 18.603 132.66 18.579 132.612C18.555 132.556 18.479 132.524 18.351 132.516L17.691 132.444ZM21.111 132.396C20.831 132.396 20.535 132.476 20.223 132.636C19.919 132.796 19.623 133.116 19.335 133.596V136.848C19.711 137.456 20.227 137.76 20.883 137.76C21.451 137.76 21.863 137.564 22.119 137.172C22.375 136.78 22.503 136.24 22.503 135.552V134.592C22.503 133.832 22.383 133.276 22.143 132.924C21.903 132.572 21.559 132.396 21.111 132.396ZM26.5008 132.456V132.156H28.0968V133.092C28.4008 132.716 28.6928 132.448 28.9728 132.288C29.2528 132.12 29.5288 132.036 29.8008 132.036C30.3528 132.036 30.7768 132.32 31.0728 132.888L30.4848 133.296C30.3568 133.032 30.2168 132.844 30.0648 132.732C29.9208 132.62 29.7448 132.564 29.5368 132.564C29.3128 132.564 29.0968 132.636 28.8888 132.78C28.6808 132.916 28.4328 133.184 28.1448 133.584V137.052C28.1448 137.332 28.1568 137.5 28.1808 137.556C28.2048 137.604 28.2808 137.632 28.4088 137.64L29.3088 137.7V138H26.5008V137.7L27.1608 137.64C27.2888 137.624 27.3648 137.592 27.3888 137.544C27.4128 137.496 27.4248 137.332 27.4248 137.052V133.104C27.4248 132.824 27.4128 132.66 27.3888 132.612C27.3648 132.556 27.2888 132.524 27.1608 132.516L26.5008 132.456ZM38.3184 136.668C38.1744 137.204 37.9024 137.58 37.5024 137.796C37.1104 138.012 36.6824 138.12 36.2184 138.12C35.3864 138.12 34.7624 137.856 34.3464 137.328C33.9384 136.792 33.7344 136.08 33.7344 135.192V134.952C33.7344 134.072 33.9344 133.368 34.3344 132.84C34.7424 132.304 35.3344 132.036 36.1104 132.036C36.5184 132.036 36.8944 132.12 37.2384 132.288C37.5824 132.456 37.8584 132.708 38.0664 133.044C38.2744 133.38 38.3784 133.808 38.3784 134.328C38.3784 134.552 38.3544 134.796 38.3064 135.06H34.5504V135.432C34.5504 136.256 34.6824 136.852 34.9464 137.22C35.2184 137.58 35.6624 137.76 36.2784 137.76C36.6704 137.76 36.9904 137.668 37.2384 137.484C37.4864 137.3 37.6624 136.976 37.7664 136.512L38.3184 136.668ZM36.1104 132.396C35.5824 132.396 35.1904 132.576 34.9344 132.936C34.6784 133.288 34.5504 133.876 34.5504 134.7H37.5984C37.6064 134.604 37.6104 134.52 37.6104 134.448C37.6184 134.368 37.6224 134.296 37.6224 134.232C37.6224 133.576 37.4824 133.108 37.2024 132.828C36.9224 132.54 36.5584 132.396 36.1104 132.396ZM43.8917 135.468L43.2077 135.288C42.7517 135.168 42.3957 134.976 42.1397 134.712C41.8917 134.44 41.7677 134.092 41.7677 133.668C41.7677 133.396 41.8317 133.136 41.9597 132.888C42.0957 132.64 42.3037 132.436 42.5837 132.276C42.8717 132.116 43.2357 132.036 43.6757 132.036C44.1877 132.036 44.5957 132.124 44.8997 132.3C45.2037 132.468 45.4157 132.692 45.5357 132.972C45.6637 133.244 45.7037 133.544 45.6557 133.872L44.9717 133.992C45.0597 133.472 44.9917 133.076 44.7677 132.804C44.5437 132.532 44.1757 132.396 43.6637 132.396C43.2557 132.396 42.9317 132.492 42.6917 132.684C42.4517 132.868 42.3317 133.144 42.3317 133.512C42.3317 133.76 42.4117 133.976 42.5717 134.16C42.7317 134.336 43.0237 134.48 43.4477 134.592L44.1437 134.772C44.6397 134.9 45.0397 135.1 45.3437 135.372C45.6477 135.644 45.7997 136.016 45.7997 136.488C45.7997 136.976 45.6237 137.372 45.2717 137.676C44.9197 137.972 44.4317 138.12 43.8077 138.12C43.2477 138.12 42.7757 137.992 42.3917 137.736C42.0077 137.48 41.7517 137.124 41.6237 136.668L42.2117 136.476C42.3237 136.964 42.5237 137.304 42.8117 137.496C43.1077 137.68 43.4477 137.772 43.8317 137.772C44.0477 137.772 44.2637 137.736 44.4797 137.664C44.6957 137.592 44.8757 137.472 45.0197 137.304C45.1637 137.136 45.2357 136.916 45.2357 136.644C45.2357 136.372 45.1357 136.14 44.9357 135.948C44.7357 135.756 44.3877 135.596 43.8917 135.468ZM53.8364 136.668C53.6924 137.204 53.4204 137.58 53.0204 137.796C52.6284 138.012 52.2004 138.12 51.7364 138.12C50.9044 138.12 50.2804 137.856 49.8644 137.328C49.4564 136.792 49.2524 136.08 49.2524 135.192V134.952C49.2524 134.072 49.4524 133.368 49.8524 132.84C50.2604 132.304 50.8524 132.036 51.6284 132.036C52.0364 132.036 52.4124 132.12 52.7564 132.288C53.1004 132.456 53.3764 132.708 53.5844 133.044C53.7924 133.38 53.8964 133.808 53.8964 134.328C53.8964 134.552 53.8724 134.796 53.8244 135.06H50.0684V135.432C50.0684 136.256 50.2004 136.852 50.4644 137.22C50.7364 137.58 51.1804 137.76 51.7964 137.76C52.1884 137.76 52.5084 137.668 52.7564 137.484C53.0044 137.3 53.1804 136.976 53.2844 136.512L53.8364 136.668ZM51.6284 132.396C51.1004 132.396 50.7084 132.576 50.4524 132.936C50.1964 133.288 50.0684 133.876 50.0684 134.7H53.1164C53.1244 134.604 53.1284 134.52 53.1284 134.448C53.1364 134.368 53.1404 134.296 53.1404 134.232C53.1404 133.576 53.0004 133.108 52.7204 132.828C52.4404 132.54 52.0764 132.396 51.6284 132.396ZM63.4656 137.7V138H60.8976V137.7L61.5576 137.64C61.6856 137.624 61.7616 137.592 61.7856 137.544C61.8096 137.496 61.8216 137.332 61.8216 137.052V134.088C61.8216 133.472 61.7176 133.044 61.5096 132.804C61.3016 132.564 61.0056 132.444 60.6216 132.444C60.3176 132.444 59.9976 132.52 59.6616 132.672C59.3256 132.824 58.9856 133.112 58.6416 133.536V137.052C58.6416 137.332 58.6536 137.496 58.6776 137.544C58.7016 137.592 58.7776 137.624 58.9056 137.64L59.5656 137.7V138H56.9976V137.7L57.6576 137.64C57.7856 137.624 57.8616 137.592 57.8856 137.544C57.9096 137.496 57.9216 137.332 57.9216 137.052V133.104C57.9216 132.824 57.9096 132.66 57.8856 132.612C57.8616 132.556 57.7856 132.524 57.6576 132.516L56.9976 132.456V132.156H58.5936V133.092C58.9216 132.716 59.2656 132.448 59.6256 132.288C59.9936 132.12 60.3616 132.036 60.7296 132.036C61.3216 132.036 61.7696 132.216 62.0736 132.576C62.3856 132.928 62.5416 133.428 62.5416 134.076V137.052C62.5416 137.332 62.5536 137.496 62.5776 137.544C62.6016 137.592 62.6776 137.624 62.8056 137.64L63.4656 137.7ZM69.913 136.776C69.785 137.232 69.605 137.572 69.373 137.796C69.149 138.012 68.841 138.12 68.449 138.12C68.089 138.12 67.797 138.04 67.573 137.88C67.357 137.712 67.197 137.5 67.093 137.244C66.997 136.988 66.949 136.724 66.949 136.452V133.104C66.949 132.824 66.937 132.66 66.913 132.612C66.897 132.556 66.821 132.524 66.685 132.516L66.025 132.456V132.156H66.949V130.452L67.669 130.308V132.156H69.649V132.516H67.669V136.452C67.669 136.948 67.741 137.292 67.885 137.484C68.029 137.668 68.229 137.76 68.485 137.76C68.741 137.76 68.933 137.668 69.061 137.484C69.189 137.3 69.285 137.016 69.349 136.632L69.913 136.776ZM77.459 136.668C77.315 137.204 77.043 137.58 76.643 137.796C76.251 138.012 75.823 138.12 75.359 138.12C74.527 138.12 73.903 137.856 73.487 137.328C73.079 136.792 72.875 136.08 72.875 135.192V134.952C72.875 134.072 73.075 133.368 73.475 132.84C73.883 132.304 74.475 132.036 75.251 132.036C75.659 132.036 76.035 132.12 76.379 132.288C76.723 132.456 76.999 132.708 77.207 133.044C77.415 133.38 77.519 133.808 77.519 134.328C77.519 134.552 77.495 134.796 77.447 135.06H73.691V135.432C73.691 136.256 73.823 136.852 74.087 137.22C74.359 137.58 74.803 137.76 75.419 137.76C75.811 137.76 76.131 137.668 76.379 137.484C76.627 137.3 76.803 136.976 76.907 136.512L77.459 136.668ZM75.251 132.396C74.723 132.396 74.331 132.576 74.075 132.936C73.819 133.288 73.691 133.876 73.691 134.7H76.739C76.747 134.604 76.751 134.52 76.751 134.448C76.759 134.368 76.763 134.296 76.763 134.232C76.763 133.576 76.623 133.108 76.343 132.828C76.063 132.54 75.699 132.396 75.251 132.396ZM83.0323 135.468L82.3483 135.288C81.8923 135.168 81.5363 134.976 81.2803 134.712C81.0323 134.44 80.9083 134.092 80.9083 133.668C80.9083 133.396 80.9723 133.136 81.1003 132.888C81.2363 132.64 81.4443 132.436 81.7243 132.276C82.0123 132.116 82.3763 132.036 82.8163 132.036C83.3283 132.036 83.7363 132.124 84.0403 132.3C84.3443 132.468 84.5563 132.692 84.6763 132.972C84.8043 133.244 84.8443 133.544 84.7963 133.872L84.1123 133.992C84.2003 133.472 84.1323 133.076 83.9083 132.804C83.6843 132.532 83.3163 132.396 82.8043 132.396C82.3963 132.396 82.0723 132.492 81.8323 132.684C81.5923 132.868 81.4723 133.144 81.4723 133.512C81.4723 133.76 81.5523 133.976 81.7123 134.16C81.8723 134.336 82.1643 134.48 82.5883 134.592L83.2843 134.772C83.7803 134.9 84.1803 135.1 84.4843 135.372C84.7883 135.644 84.9403 136.016 84.9403 136.488C84.9403 136.976 84.7643 137.372 84.4123 137.676C84.0603 137.972 83.5723 138.12 82.9483 138.12C82.3883 138.12 81.9163 137.992 81.5323 137.736C81.1483 137.48 80.8923 137.124 80.7643 136.668L81.3523 136.476C81.4643 136.964 81.6643 137.304 81.9523 137.496C82.2483 137.68 82.5883 137.772 82.9723 137.772C83.1883 137.772 83.4043 137.736 83.6203 137.664C83.8363 137.592 84.0163 137.472 84.1603 137.304C84.3043 137.136 84.3763 136.916 84.3763 136.644C84.3763 136.372 84.2763 136.14 84.0763 135.948C83.8763 135.756 83.5283 135.596 83.0323 135.468Z" fill="#5429BD"/>
<line y1="109.5" x2="103" y2="109.5" stroke="#5429BD"/>
<path d="M37.625 30.1875C37.625 28.2813 38.3823 26.4531 39.7302 25.1052C41.0781 23.7573 42.9063 23 44.8125 23C46.7187 23 48.5469 23.7573 49.8948 25.1052C51.2427 26.4531 52 28.2813 52 30.1875C52 28.2813 52.7573 26.4531 54.1052 25.1052C55.4531 23.7573 57.2813 23 59.1875 23C61.0937 23 62.9219 23.7573 64.2698 25.1052C65.6177 26.4531 66.375 28.2813 66.375 30.1875V30.2048C66.375 30.406 66.375 30.981 66.2658 31.625H72.125C72.8875 31.625 73.6188 31.9279 74.1579 32.4671C74.6971 33.0062 75 33.7375 75 34.5V40.25C75 41.0125 74.6971 41.7438 74.1579 42.2829C73.6188 42.8221 72.8875 43.125 72.125 43.125V64.6875C72.125 65.8312 71.6707 66.9282 70.8619 67.7369C70.0532 68.5457 68.9562 69 67.8125 69H36.1875C35.0438 69 33.9469 68.5457 33.1381 67.7369C32.3294 66.9282 31.875 65.8312 31.875 64.6875V43.125C31.1125 43.125 30.3812 42.8221 29.8421 42.2829C29.3029 41.7438 29 41.0125 29 40.25V34.5C29 33.7375 29.3029 33.0062 29.8421 32.4671C30.3812 31.9279 31.1125 31.625 31.875 31.625H37.7343C37.6587 31.1554 37.6222 30.6804 37.625 30.2048V30.1875ZM40.6955 31.625H49.125V30.1875C49.125 29.6212 49.0135 29.0604 48.7967 28.5372C48.58 28.014 48.2624 27.5386 47.8619 27.1381C47.4614 26.7376 46.986 26.42 46.4628 26.2033C45.9396 25.9865 45.3788 25.875 44.8125 25.875C44.2462 25.875 43.6854 25.9865 43.1622 26.2033C42.639 26.42 42.1636 26.7376 41.7631 27.1381C41.3626 27.5386 41.045 28.014 40.8283 28.5372C40.6115 29.0604 40.5 29.6212 40.5 30.1875C40.5 30.4319 40.5058 30.9752 40.6294 31.4237L40.6955 31.625ZM54.875 31.625H63.3045L63.3706 31.4237C63.4943 30.9752 63.5 30.4319 63.5 30.1875C63.5 29.0438 63.0457 27.9469 62.2369 27.1381C61.4282 26.3294 60.3312 25.875 59.1875 25.875C58.0438 25.875 56.9469 26.3294 56.1381 27.1381C55.3294 27.9469 54.875 29.0438 54.875 30.1875V31.625ZM31.875 34.5V40.25H49.125V34.5H31.875ZM54.875 34.5V40.25H72.125V34.5H54.875ZM69.25 43.125H54.875V66.125H67.8125C68.1937 66.125 68.5594 65.9736 68.829 65.704C69.0986 65.4344 69.25 65.0687 69.25 64.6875V43.125ZM49.125 66.125V43.125H34.75V64.6875C34.75 65.0687 34.9015 65.4344 35.171 65.704C35.4406 65.9736 35.8063 66.125 36.1875 66.125H49.125Z" fill="#5429BD"/>
<circle cx="51.5" cy="45.5" r="43" stroke="#5429BD" stroke-width="5"/>
</svg>
