<svg width="103" height="145" viewBox="0 0 103 145" fill="none" xmlns="http://www.w3.org/2000/svg">
<path d="M40.35 99.42H40.77V102H33.645V101.58L34.47 101.475C34.63 101.455 34.725 101.415 34.755 101.355C34.785 101.285 34.8 101.08 34.8 100.74V93.06C34.8 92.72 34.785 92.52 34.755 92.46C34.725 92.39 34.63 92.345 34.47 92.325L33.645 92.22V91.8H37.755V92.22L36.93 92.325C36.77 92.345 36.675 92.39 36.645 92.46C36.615 92.52 36.6 92.72 36.6 93.06V101.475H39.06C39.3 101.475 39.47 101.47 39.57 101.46C39.67 101.44 39.735 101.405 39.765 101.355C39.805 101.295 39.84 101.205 39.87 101.085L40.35 99.42ZM45.5884 93.105C45.2784 93.105 45.0284 93.01 44.8384 92.82C44.6484 92.62 44.5534 92.365 44.5534 92.055C44.5534 91.745 44.6484 91.495 44.8384 91.305C45.0284 91.115 45.2784 91.02 45.5884 91.02C45.8884 91.02 46.1384 91.115 46.3384 91.305C46.5384 91.495 46.6384 91.745 46.6384 92.055C46.6384 92.365 46.5384 92.62 46.3384 92.82C46.1384 93.01 45.8884 93.105 45.5884 93.105ZM43.5784 94.815V94.395H46.4584V100.74C46.4584 101.08 46.4734 101.285 46.5034 101.355C46.5334 101.415 46.6284 101.455 46.7884 101.475L47.6134 101.58V102H43.5784V101.58L44.4034 101.475C44.5634 101.455 44.6584 101.415 44.6884 101.355C44.7184 101.285 44.7334 101.08 44.7334 100.74V95.655C44.7334 95.315 44.7184 95.115 44.6884 95.055C44.6584 94.985 44.5634 94.94 44.4034 94.92L43.5784 94.815ZM53.8627 99.165L52.8277 98.925C52.1577 98.765 51.6577 98.48 51.3277 98.07C51.0077 97.65 50.8477 97.155 50.8477 96.585C50.8477 96.165 50.9377 95.78 51.1177 95.43C51.3077 95.07 51.6027 94.785 52.0027 94.575C52.4027 94.355 52.9227 94.245 53.5627 94.245C54.2527 94.245 54.8127 94.355 55.2427 94.575C55.6727 94.795 55.9777 95.085 56.1577 95.445C56.3377 95.805 56.3927 96.19 56.3227 96.6L54.6727 96.9C54.8127 96.22 54.7727 95.695 54.5527 95.325C54.3427 94.955 53.9877 94.77 53.4877 94.77C53.1377 94.77 52.8477 94.875 52.6177 95.085C52.3877 95.285 52.2727 95.575 52.2727 95.955C52.2727 96.305 52.3727 96.615 52.5727 96.885C52.7727 97.145 53.0677 97.32 53.4577 97.41L54.4927 97.65C55.2327 97.82 55.7677 98.09 56.0977 98.46C56.4277 98.82 56.5927 99.27 56.5927 99.81C56.5927 100.48 56.3427 101.04 55.8427 101.49C55.3527 101.93 54.6177 102.15 53.6377 102.15C53.2977 102.15 52.9227 102.1 52.5127 102C52.1127 101.89 51.7427 101.695 51.4027 101.415C51.0727 101.135 50.8327 100.735 50.6827 100.215L51.6577 99.825C51.7277 100.485 51.9527 100.95 52.3327 101.22C52.7227 101.49 53.1577 101.625 53.6377 101.625C54.0877 101.625 54.4527 101.525 54.7327 101.325C55.0227 101.115 55.1677 100.815 55.1677 100.425C55.1677 100.155 55.0727 99.91 54.8827 99.69C54.7027 99.46 54.3627 99.285 53.8627 99.165ZM65.2397 100.44C65.1097 101.05 64.8597 101.49 64.4897 101.76C64.1297 102.02 63.6897 102.15 63.1697 102.15C62.6397 102.15 62.2047 102.035 61.8647 101.805C61.5247 101.565 61.2747 101.25 61.1147 100.86C60.9547 100.47 60.8747 100.055 60.8747 99.615V95.655C60.8747 95.315 60.8597 95.115 60.8297 95.055C60.7997 94.985 60.7047 94.94 60.5447 94.92L59.7197 94.815V94.395H60.8747V92.655L62.5997 92.31V94.395H64.9997V94.92H62.5997V99.915C62.5997 100.555 62.6797 101 62.8397 101.25C62.9997 101.49 63.2047 101.61 63.4547 101.61C63.7147 101.61 63.9147 101.51 64.0547 101.31C64.2047 101.11 64.2997 100.745 64.3397 100.215L65.2397 100.44ZM75.7177 101.625C75.5577 101.775 75.3627 101.9 75.1327 102C74.9127 102.1 74.6427 102.15 74.3227 102.15C73.9127 102.15 73.5677 102.06 73.2877 101.88C73.0177 101.7 72.8377 101.445 72.7477 101.115C72.4177 101.475 72.0527 101.74 71.6527 101.91C71.2627 102.07 70.8627 102.15 70.4527 102.15C69.7627 102.15 69.2477 101.96 68.9077 101.58C68.5677 101.19 68.3977 100.705 68.3977 100.125C68.3977 99.535 68.6127 99.06 69.0427 98.7C69.4727 98.33 70.2327 98.145 71.3227 98.145H72.6877V96.93C72.6877 96.1 72.5777 95.535 72.3577 95.235C72.1477 94.925 71.8527 94.77 71.4727 94.77C71.2227 94.77 70.9927 94.835 70.7827 94.965C70.5727 95.085 70.4227 95.315 70.3327 95.655C70.2527 95.985 70.2677 96.465 70.3777 97.095L68.7277 96.855C68.6477 96.395 68.6977 95.97 68.8777 95.58C69.0677 95.18 69.3827 94.86 69.8227 94.62C70.2627 94.37 70.8227 94.245 71.5027 94.245C72.2727 94.245 72.8677 94.37 73.2877 94.62C73.7077 94.87 73.9977 95.2 74.1577 95.61C74.3277 96.02 74.4127 96.46 74.4127 96.93V100.395C74.4127 100.905 74.4577 101.225 74.5477 101.355C74.6377 101.485 74.7377 101.55 74.8477 101.55C75.0277 101.55 75.2277 101.445 75.4477 101.235L75.7177 101.625ZM71.1127 101.355C71.3727 101.355 71.6277 101.29 71.8777 101.16C72.1377 101.02 72.4077 100.765 72.6877 100.395V98.67H71.5627C71.0727 98.67 70.7177 98.785 70.4977 99.015C70.2777 99.245 70.1677 99.605 70.1677 100.095C70.1677 100.495 70.2477 100.805 70.4077 101.025C70.5677 101.245 70.8027 101.355 71.1127 101.355Z" fill="#5429BD"/>
<path d="M23.2678 128.12C22.2998 128.12 21.5718 127.788 21.0838 127.124C20.5958 126.452 20.3518 125.548 20.3518 124.412V123.416C20.3518 122.672 20.4638 122.024 20.6878 121.472C20.9118 120.912 21.2358 120.48 21.6598 120.176C22.0918 119.872 22.6158 119.72 23.2318 119.72C23.8238 119.72 24.3078 119.84 24.6838 120.08C25.0678 120.312 25.3398 120.616 25.4998 120.992C25.6598 121.368 25.6998 121.772 25.6198 122.204L24.8398 122.396C24.9278 121.652 24.8318 121.08 24.5518 120.68C24.2798 120.28 23.8478 120.08 23.2558 120.08C22.5918 120.08 22.0878 120.292 21.7438 120.716C21.3998 121.14 21.2278 121.84 21.2278 122.816V125.012C21.2278 125.98 21.4038 126.68 21.7558 127.112C22.1078 127.544 22.6238 127.76 23.3038 127.76C23.5678 127.76 23.8238 127.716 24.0718 127.628C24.3198 127.532 24.5318 127.376 24.7078 127.16C24.8838 126.944 24.9918 126.648 25.0318 126.272L25.7038 126.428C25.5278 127.044 25.2158 127.48 24.7678 127.736C24.3278 127.992 23.8278 128.12 23.2678 128.12ZM33.8438 124.952V125.192C33.8438 126.08 33.6238 126.792 33.1838 127.328C32.7518 127.856 32.1398 128.12 31.3478 128.12C30.5478 128.12 29.9318 127.856 29.4998 127.328C29.0678 126.792 28.8518 126.08 28.8518 125.192V124.952C28.8518 124.072 29.0678 123.368 29.4998 122.84C29.9318 122.304 30.5478 122.036 31.3478 122.036C32.1478 122.036 32.7638 122.304 33.1958 122.84C33.6278 123.368 33.8438 124.072 33.8438 124.952ZM33.0278 124.712C33.0278 123.88 32.8838 123.288 32.5958 122.936C32.3078 122.576 31.8918 122.396 31.3478 122.396C30.8118 122.396 30.3958 122.576 30.0998 122.936C29.8118 123.288 29.6678 123.88 29.6678 124.712V125.432C29.6678 126.256 29.8118 126.852 30.0998 127.22C30.3958 127.58 30.8118 127.76 31.3478 127.76C31.8918 127.76 32.3078 127.58 32.5958 127.22C32.8838 126.852 33.0278 126.256 33.0278 125.432V124.712ZM43.4524 127.7V128H40.8844V127.7L41.5444 127.64C41.6724 127.624 41.7484 127.592 41.7724 127.544C41.7964 127.496 41.8084 127.332 41.8084 127.052V124.088C41.8084 123.472 41.7044 123.044 41.4964 122.804C41.2884 122.564 40.9924 122.444 40.6084 122.444C40.3044 122.444 39.9844 122.52 39.6484 122.672C39.3124 122.824 38.9724 123.112 38.6284 123.536V127.052C38.6284 127.332 38.6404 127.496 38.6644 127.544C38.6884 127.592 38.7644 127.624 38.8924 127.64L39.5524 127.7V128H36.9844V127.7L37.6444 127.64C37.7724 127.624 37.8484 127.592 37.8724 127.544C37.8964 127.496 37.9084 127.332 37.9084 127.052V123.104C37.9084 122.824 37.8964 122.66 37.8724 122.612C37.8484 122.556 37.7724 122.524 37.6444 122.516L36.9844 122.456V122.156H38.5804V123.092C38.9084 122.716 39.2524 122.448 39.6124 122.288C39.9804 122.12 40.3484 122.036 40.7164 122.036C41.3084 122.036 41.7564 122.216 42.0604 122.576C42.3724 122.928 42.5284 123.428 42.5284 124.076V127.052C42.5284 127.332 42.5404 127.496 42.5644 127.544C42.5884 127.592 42.6644 127.624 42.7924 127.64L43.4524 127.7ZM52.4437 127.7V128H49.8757V127.7L50.5357 127.64C50.6637 127.624 50.7397 127.592 50.7637 127.544C50.7877 127.496 50.7997 127.332 50.7997 127.052V122.516H47.7997V127.052C47.7997 127.332 47.8117 127.496 47.8357 127.544C47.8597 127.592 47.9357 127.624 48.0637 127.64L48.7237 127.7V128H46.1557V127.7L46.8157 127.64C46.9437 127.624 47.0197 127.592 47.0437 127.544C47.0677 127.496 47.0797 127.332 47.0797 127.052V123.104C47.0797 122.824 47.0677 122.66 47.0437 122.612C47.0277 122.556 46.9517 122.524 46.8157 122.516L46.1557 122.456V122.156H47.0797V121.628C47.0797 121.164 47.1557 120.736 47.3077 120.344C47.4597 119.944 47.7077 119.62 48.0517 119.372C48.3957 119.124 48.8597 119 49.4437 119C50.1717 119 50.7117 119.188 51.0637 119.564C51.4157 119.932 51.5477 120.404 51.4597 120.98L50.7757 121.088C50.9357 119.936 50.4917 119.36 49.4437 119.36C49.1237 119.36 48.8397 119.42 48.5917 119.54C48.3437 119.652 48.1477 119.864 48.0037 120.176C47.8677 120.488 47.7997 120.932 47.7997 121.508V122.156H51.5197V127.052C51.5197 127.332 51.5317 127.496 51.5557 127.544C51.5797 127.592 51.6557 127.624 51.7837 127.64L52.4437 127.7ZM55.2094 122.456V122.156H56.8054V123.092C57.1094 122.716 57.4014 122.448 57.6814 122.288C57.9614 122.12 58.2374 122.036 58.5094 122.036C59.0614 122.036 59.4854 122.32 59.7814 122.888L59.1934 123.296C59.0654 123.032 58.9254 122.844 58.7734 122.732C58.6294 122.62 58.4534 122.564 58.2454 122.564C58.0214 122.564 57.8054 122.636 57.5974 122.78C57.3894 122.916 57.1414 123.184 56.8534 123.584V127.052C56.8534 127.332 56.8654 127.5 56.8894 127.556C56.9134 127.604 56.9894 127.632 57.1174 127.64L58.0174 127.7V128H55.2094V127.7L55.8694 127.64C55.9974 127.624 56.0734 127.592 56.0974 127.544C56.1214 127.496 56.1334 127.332 56.1334 127.052V123.104C56.1334 122.824 56.1214 122.66 56.0974 122.612C56.0734 122.556 55.9974 122.524 55.8694 122.516L55.2094 122.456ZM68.455 127.7V128H65.887V127.7L66.547 127.64C66.675 127.624 66.751 127.592 66.775 127.544C66.799 127.496 66.811 127.332 66.811 127.052V124.088C66.811 123.472 66.711 123.044 66.511 122.804C66.319 122.564 66.039 122.444 65.671 122.444C65.375 122.444 65.063 122.52 64.735 122.672C64.415 122.824 64.087 123.112 63.751 123.536V127.052C63.751 127.332 63.763 127.496 63.787 127.544C63.811 127.592 63.887 127.624 64.015 127.64L64.675 127.7V128H62.107V127.7L62.767 127.64C62.895 127.624 62.971 127.592 62.995 127.544C63.019 127.496 63.031 127.332 63.031 127.052V123.104C63.031 122.824 63.019 122.66 62.995 122.612C62.971 122.556 62.895 122.524 62.767 122.516L62.107 122.456V122.156H63.703V123.092C64.023 122.716 64.359 122.448 64.711 122.288C65.071 122.12 65.427 122.036 65.779 122.036C66.203 122.036 66.551 122.136 66.823 122.336C67.095 122.528 67.291 122.808 67.411 123.176C67.739 122.776 68.087 122.488 68.455 122.312C68.823 122.128 69.191 122.036 69.559 122.036C70.127 122.036 70.559 122.216 70.855 122.576C71.159 122.928 71.311 123.428 71.311 124.076V127.052C71.311 127.332 71.323 127.496 71.347 127.544C71.371 127.592 71.447 127.624 71.575 127.64L72.235 127.7V128H69.667V127.7L70.327 127.64C70.455 127.624 70.531 127.592 70.555 127.544C70.579 127.496 70.591 127.332 70.591 127.052V124.088C70.591 123.472 70.491 123.044 70.291 122.804C70.099 122.564 69.819 122.444 69.451 122.444C69.155 122.444 68.839 122.524 68.503 122.684C68.175 122.844 67.839 123.14 67.495 123.572C67.519 123.724 67.531 123.892 67.531 124.076V127.052C67.531 127.332 67.543 127.496 67.567 127.544C67.591 127.592 67.667 127.624 67.795 127.64L68.455 127.7ZM79.8306 128.06C79.5586 128.06 79.3346 127.984 79.1586 127.832C78.9826 127.672 78.8746 127.452 78.8346 127.172C78.5386 127.508 78.2186 127.752 77.8746 127.904C77.5306 128.048 77.1906 128.12 76.8546 128.12C76.2946 128.12 75.8826 127.964 75.6186 127.652C75.3626 127.332 75.2346 126.96 75.2346 126.536C75.2346 126.064 75.3906 125.696 75.7026 125.432C76.0146 125.168 76.5466 125.036 77.2986 125.036H78.8226V124.064C78.8226 123.424 78.6986 122.988 78.4506 122.756C78.2026 122.516 77.8666 122.396 77.4426 122.396C77.1706 122.396 76.9306 122.444 76.7226 122.54C76.5146 122.628 76.3626 122.796 76.2666 123.044C76.1706 123.284 76.1466 123.632 76.1946 124.088L75.4986 123.968C75.4506 123.408 75.5946 122.948 75.9306 122.588C76.2666 122.22 76.7786 122.036 77.4666 122.036C78.0186 122.036 78.4426 122.132 78.7386 122.324C79.0426 122.508 79.2506 122.756 79.3626 123.068C79.4826 123.372 79.5426 123.704 79.5426 124.064V126.716C79.5426 127.124 79.5946 127.38 79.6986 127.484C79.8106 127.588 79.9306 127.64 80.0586 127.64C80.1226 127.64 80.1986 127.624 80.2866 127.592C80.3746 127.56 80.4626 127.504 80.5506 127.424L80.7666 127.712C80.6546 127.816 80.5226 127.9 80.3706 127.964C80.2186 128.028 80.0386 128.06 79.8306 128.06ZM77.0586 127.7C77.2906 127.7 77.5546 127.636 77.8506 127.508C78.1546 127.38 78.4786 127.096 78.8226 126.656V125.396H77.3946C76.9066 125.396 76.5506 125.484 76.3266 125.66C76.1026 125.828 75.9906 126.1 75.9906 126.476C75.9906 126.86 76.0786 127.16 76.2546 127.376C76.4306 127.592 76.6986 127.7 77.0586 127.7ZM83.2265 122.456V122.156H84.8225V123.092C85.1265 122.716 85.4185 122.448 85.6985 122.288C85.9785 122.12 86.2545 122.036 86.5265 122.036C87.0785 122.036 87.5025 122.32 87.7985 122.888L87.2105 123.296C87.0825 123.032 86.9425 122.844 86.7905 122.732C86.6465 122.62 86.4705 122.564 86.2625 122.564C86.0385 122.564 85.8225 122.636 85.6145 122.78C85.4065 122.916 85.1585 123.184 84.8705 123.584V127.052C84.8705 127.332 84.8825 127.5 84.9065 127.556C84.9305 127.604 85.0065 127.632 85.1345 127.64L86.0345 127.7V128H83.2265V127.7L83.8865 127.64C84.0145 127.624 84.0905 127.592 84.1145 127.544C84.1385 127.496 84.1505 127.332 84.1505 127.052V123.104C84.1505 122.824 84.1385 122.66 84.1145 122.612C84.0905 122.556 84.0145 122.524 83.8865 122.516L83.2265 122.456ZM23.5773 136.444V136.156H25.1733V137.068C25.4293 136.692 25.7133 136.428 26.0253 136.276C26.3453 136.116 26.6853 136.036 27.0453 136.036C27.7493 136.036 28.2853 136.292 28.6533 136.804C29.0213 137.308 29.2053 138.024 29.2053 138.952V139.192C29.2053 140.088 28.9893 140.8 28.5573 141.328C28.1333 141.856 27.5373 142.12 26.7693 142.12C26.1453 142.12 25.6293 141.9 25.2213 141.46V143.608C25.2213 143.888 25.2333 144.052 25.2573 144.1C25.2813 144.156 25.3573 144.188 25.4853 144.196L26.3853 144.256V144.556H23.5773V144.256L24.2373 144.196C24.3653 144.18 24.4413 144.148 24.4653 144.1C24.4893 144.052 24.5013 143.888 24.5013 143.608V137.104C24.5013 136.824 24.4893 136.66 24.4653 136.612C24.4413 136.556 24.3653 136.524 24.2373 136.516L23.5773 136.444ZM26.9973 136.396C26.7173 136.396 26.4213 136.476 26.1093 136.636C25.8053 136.796 25.5093 137.116 25.2213 137.596V140.848C25.5973 141.456 26.1133 141.76 26.7693 141.76C27.3373 141.76 27.7493 141.564 28.0053 141.172C28.2613 140.78 28.3893 140.24 28.3893 139.552V138.592C28.3893 137.832 28.2693 137.276 28.0293 136.924C27.7893 136.572 27.4453 136.396 26.9973 136.396ZM32.3871 136.456V136.156H33.9831V137.092C34.2871 136.716 34.5791 136.448 34.8591 136.288C35.1391 136.12 35.4151 136.036 35.6871 136.036C36.2391 136.036 36.6631 136.32 36.9591 136.888L36.3711 137.296C36.2431 137.032 36.1031 136.844 35.9511 136.732C35.8071 136.62 35.6311 136.564 35.4231 136.564C35.1991 136.564 34.9831 136.636 34.7751 136.78C34.5671 136.916 34.3191 137.184 34.0311 137.584V141.052C34.0311 141.332 34.0431 141.5 34.0671 141.556C34.0911 141.604 34.1671 141.632 34.2951 141.64L35.1951 141.7V142H32.3871V141.7L33.0471 141.64C33.1751 141.624 33.2511 141.592 33.2751 141.544C33.2991 141.496 33.3111 141.332 33.3111 141.052V137.104C33.3111 136.824 33.2991 136.66 33.2751 136.612C33.2511 136.556 33.1751 136.524 33.0471 136.516L32.3871 136.456ZM44.2048 140.668C44.0608 141.204 43.7888 141.58 43.3888 141.796C42.9968 142.012 42.5688 142.12 42.1048 142.12C41.2728 142.12 40.6488 141.856 40.2328 141.328C39.8248 140.792 39.6208 140.08 39.6208 139.192V138.952C39.6208 138.072 39.8208 137.368 40.2208 136.84C40.6288 136.304 41.2208 136.036 41.9968 136.036C42.4048 136.036 42.7808 136.12 43.1248 136.288C43.4688 136.456 43.7448 136.708 43.9528 137.044C44.1608 137.38 44.2648 137.808 44.2648 138.328C44.2648 138.552 44.2408 138.796 44.1928 139.06H40.4368V139.432C40.4368 140.256 40.5688 140.852 40.8328 141.22C41.1048 141.58 41.5488 141.76 42.1648 141.76C42.5568 141.76 42.8768 141.668 43.1248 141.484C43.3728 141.3 43.5488 140.976 43.6528 140.512L44.2048 140.668ZM41.9968 136.396C41.4688 136.396 41.0768 136.576 40.8208 136.936C40.5648 137.288 40.4368 137.876 40.4368 138.7H43.4848C43.4928 138.604 43.4968 138.52 43.4968 138.448C43.5048 138.368 43.5088 138.296 43.5088 138.232C43.5088 137.576 43.3688 137.108 43.0888 136.828C42.8088 136.54 42.4448 136.396 41.9968 136.396ZM49.778 139.468L49.094 139.288C48.638 139.168 48.282 138.976 48.026 138.712C47.778 138.44 47.654 138.092 47.654 137.668C47.654 137.396 47.718 137.136 47.846 136.888C47.982 136.64 48.19 136.436 48.47 136.276C48.758 136.116 49.122 136.036 49.562 136.036C50.074 136.036 50.482 136.124 50.786 136.3C51.09 136.468 51.302 136.692 51.422 136.972C51.55 137.244 51.59 137.544 51.542 137.872L50.858 137.992C50.946 137.472 50.878 137.076 50.654 136.804C50.43 136.532 50.062 136.396 49.55 136.396C49.142 136.396 48.818 136.492 48.578 136.684C48.338 136.868 48.218 137.144 48.218 137.512C48.218 137.76 48.298 137.976 48.458 138.16C48.618 138.336 48.91 138.48 49.334 138.592L50.03 138.772C50.526 138.9 50.926 139.1 51.23 139.372C51.534 139.644 51.686 140.016 51.686 140.488C51.686 140.976 51.51 141.372 51.158 141.676C50.806 141.972 50.318 142.12 49.694 142.12C49.134 142.12 48.662 141.992 48.278 141.736C47.894 141.48 47.638 141.124 47.51 140.668L48.098 140.476C48.21 140.964 48.41 141.304 48.698 141.496C48.994 141.68 49.334 141.772 49.718 141.772C49.934 141.772 50.15 141.736 50.366 141.664C50.582 141.592 50.762 141.472 50.906 141.304C51.05 141.136 51.122 140.916 51.122 140.644C51.122 140.372 51.022 140.14 50.822 139.948C50.622 139.756 50.274 139.596 49.778 139.468ZM59.7227 140.668C59.5787 141.204 59.3067 141.58 58.9067 141.796C58.5147 142.012 58.0867 142.12 57.6227 142.12C56.7907 142.12 56.1667 141.856 55.7507 141.328C55.3427 140.792 55.1387 140.08 55.1387 139.192V138.952C55.1387 138.072 55.3387 137.368 55.7387 136.84C56.1467 136.304 56.7387 136.036 57.5147 136.036C57.9227 136.036 58.2987 136.12 58.6427 136.288C58.9867 136.456 59.2627 136.708 59.4707 137.044C59.6787 137.38 59.7827 137.808 59.7827 138.328C59.7827 138.552 59.7587 138.796 59.7107 139.06H55.9547V139.432C55.9547 140.256 56.0867 140.852 56.3507 141.22C56.6227 141.58 57.0667 141.76 57.6827 141.76C58.0747 141.76 58.3947 141.668 58.6427 141.484C58.8907 141.3 59.0667 140.976 59.1707 140.512L59.7227 140.668ZM57.5147 136.396C56.9867 136.396 56.5947 136.576 56.3387 136.936C56.0827 137.288 55.9547 137.876 55.9547 138.7H59.0027C59.0107 138.604 59.0147 138.52 59.0147 138.448C59.0227 138.368 59.0267 138.296 59.0267 138.232C59.0267 137.576 58.8867 137.108 58.6067 136.828C58.3267 136.54 57.9627 136.396 57.5147 136.396ZM69.352 141.7V142H66.784V141.7L67.444 141.64C67.572 141.624 67.648 141.592 67.672 141.544C67.696 141.496 67.708 141.332 67.708 141.052V138.088C67.708 137.472 67.604 137.044 67.396 136.804C67.188 136.564 66.892 136.444 66.508 136.444C66.204 136.444 65.884 136.52 65.548 136.672C65.212 136.824 64.872 137.112 64.528 137.536V141.052C64.528 141.332 64.54 141.496 64.564 141.544C64.588 141.592 64.664 141.624 64.792 141.64L65.452 141.7V142H62.884V141.7L63.544 141.64C63.672 141.624 63.748 141.592 63.772 141.544C63.796 141.496 63.808 141.332 63.808 141.052V137.104C63.808 136.824 63.796 136.66 63.772 136.612C63.748 136.556 63.672 136.524 63.544 136.516L62.884 136.456V136.156H64.48V137.092C64.808 136.716 65.152 136.448 65.512 136.288C65.88 136.12 66.248 136.036 66.616 136.036C67.208 136.036 67.656 136.216 67.96 136.576C68.272 136.928 68.428 137.428 68.428 138.076V141.052C68.428 141.332 68.44 141.496 68.464 141.544C68.488 141.592 68.564 141.624 68.692 141.64L69.352 141.7ZM76.1593 143.692C76.1593 143.996 76.0433 144.236 75.8113 144.412C75.5793 144.588 75.2753 144.676 74.8993 144.676C74.6033 144.676 74.3353 144.604 74.0953 144.46C73.8553 144.324 73.7033 144.084 73.6393 143.74L74.1673 143.584C74.1993 143.872 74.2753 144.076 74.3953 144.196C74.5153 144.316 74.6753 144.376 74.8753 144.376C75.1073 144.376 75.2713 144.312 75.3673 144.184C75.4713 144.056 75.5233 143.892 75.5233 143.692C75.5233 143.5 75.4713 143.34 75.3673 143.212C75.2633 143.092 75.0713 143.032 74.7913 143.032C74.6713 143.032 74.5713 143.04 74.4913 143.056L74.3833 142.756L74.6473 142.12C73.8873 142.08 73.3193 141.796 72.9433 141.268C72.5673 140.74 72.3793 140.048 72.3793 139.192V138.952C72.3793 138.072 72.5793 137.368 72.9793 136.84C73.3873 136.304 73.9793 136.036 74.7553 136.036C75.2353 136.036 75.6353 136.132 75.9553 136.324C76.2833 136.508 76.5193 136.764 76.6633 137.092C76.8073 137.412 76.8473 137.776 76.7833 138.184L76.0993 138.292C76.1873 137.676 76.1153 137.208 75.8833 136.888C75.6513 136.56 75.2753 136.396 74.7553 136.396C74.2673 136.396 73.8833 136.576 73.6033 136.936C73.3313 137.288 73.1953 137.88 73.1953 138.712V139.432C73.1953 140.256 73.3233 140.852 73.5793 141.22C73.8433 141.58 74.2753 141.76 74.8753 141.76C75.2593 141.76 75.5673 141.668 75.7993 141.484C76.0393 141.3 76.2113 140.976 76.3153 140.512L76.8673 140.668C76.7393 141.156 76.5033 141.512 76.1593 141.736C75.8153 141.952 75.4393 142.076 75.0313 142.108L74.7793 142.72H74.8273C75.2273 142.72 75.5473 142.804 75.7873 142.972C76.0353 143.148 76.1593 143.388 76.1593 143.692ZM84.7748 142.06C84.5028 142.06 84.2788 141.984 84.1028 141.832C83.9268 141.672 83.8188 141.452 83.7788 141.172C83.4828 141.508 83.1628 141.752 82.8188 141.904C82.4748 142.048 82.1348 142.12 81.7988 142.12C81.2388 142.12 80.8268 141.964 80.5628 141.652C80.3068 141.332 80.1788 140.96 80.1788 140.536C80.1788 140.064 80.3348 139.696 80.6468 139.432C80.9588 139.168 81.4908 139.036 82.2428 139.036H83.7668V138.064C83.7668 137.424 83.6428 136.988 83.3948 136.756C83.1468 136.516 82.8108 136.396 82.3868 136.396C82.1148 136.396 81.8748 136.444 81.6668 136.54C81.4588 136.628 81.3068 136.796 81.2108 137.044C81.1148 137.284 81.0908 137.632 81.1388 138.088L80.4428 137.968C80.3948 137.408 80.5388 136.948 80.8748 136.588C81.2108 136.22 81.7228 136.036 82.4108 136.036C82.9628 136.036 83.3868 136.132 83.6828 136.324C83.9868 136.508 84.1948 136.756 84.3068 137.068C84.4268 137.372 84.4868 137.704 84.4868 138.064V140.716C84.4868 141.124 84.5388 141.38 84.6428 141.484C84.7548 141.588 84.8748 141.64 85.0028 141.64C85.0668 141.64 85.1428 141.624 85.2308 141.592C85.3188 141.56 85.4068 141.504 85.4948 141.424L85.7108 141.712C85.5988 141.816 85.4668 141.9 85.3148 141.964C85.1628 142.028 84.9828 142.06 84.7748 142.06ZM82.0028 141.7C82.2348 141.7 82.4988 141.636 82.7948 141.508C83.0988 141.38 83.4228 141.096 83.7668 140.656V139.396H82.3388C81.8508 139.396 81.4948 139.484 81.2708 139.66C81.0468 139.828 80.9348 140.1 80.9348 140.476C80.9348 140.86 81.0228 141.16 81.1988 141.376C81.3748 141.592 81.6428 141.7 82.0028 141.7Z" fill="#5429BD"/>
<line y1="108.5" x2="103" y2="108.5" stroke="#5429BD"/>
<path d="M51.5 77.8125C41.8693 77.8125 32.6331 73.9867 25.8232 67.1768C19.0133 60.3669 15.1875 51.1307 15.1875 41.5C15.1875 31.8693 19.0133 22.6331 25.8232 15.8232C32.6331 9.01327 41.8693 5.1875 51.5 5.1875C61.1307 5.1875 70.3669 9.01327 77.1768 15.8232C83.9867 22.6331 87.8125 31.8693 87.8125 41.5C87.8125 51.1307 83.9867 60.3669 77.1768 67.1768C70.3669 73.9867 61.1307 77.8125 51.5 77.8125ZM51.5 83C62.5065 83 73.0622 78.6277 80.8449 70.8449C88.6277 63.0622 93 52.5065 93 41.5C93 30.4935 88.6277 19.9378 80.8449 12.1551C73.0622 4.37231 62.5065 0 51.5 0C40.4935 0 29.9378 4.37231 22.1551 12.1551C14.3723 19.9378 10 30.4935 10 41.5C10 52.5065 14.3723 63.0622 22.1551 70.8449C29.9378 78.6277 40.4935 83 51.5 83Z" fill="#5429BD"/>
<path d="M66.394 26.1041L66.2906 26.2158L48.3385 48.6932L37.5197 38.0564C36.7848 37.3835 35.8127 37.0171 34.8084 37.0345C33.804 37.0519 32.8458 37.4518 32.1355 38.1498C31.4252 38.8478 31.0183 39.7895 31.0006 40.7765C30.9829 41.7634 31.3557 42.7186 32.0405 43.4408L45.7178 56.8866C46.0862 57.248 46.525 57.5328 47.0079 57.724C47.4908 57.9152 48.0079 58.0088 48.5284 57.9993C49.0489 57.9899 49.5622 57.8775 50.0375 57.6688C50.5129 57.4602 50.9406 57.1596 51.2952 56.785L71.93 31.4377C72.6326 30.713 73.0168 29.7456 72.9994 28.7448C72.9821 27.744 72.5646 26.7901 71.8372 26.0893C71.1099 25.3885 70.1311 24.9973 69.1125 25C68.0939 25.0028 67.1174 25.3994 66.394 26.1041Z" fill="#5429BD"/>
</svg>
