<svg width="103" height="132" viewBox="0 0 103 132" fill="none" xmlns="http://www.w3.org/2000/svg">
<path d="M51 74C51 74 71 54.8097 71 40.25C71 34.8794 68.8929 29.7287 65.1421 25.9311C61.3914 22.1335 56.3043 20 51 20C45.6957 20 40.6086 22.1335 36.8579 25.9311C33.1071 29.7287 31 34.8794 31 40.25C31 54.8097 51 74 51 74ZM51 50.375C48.3478 50.375 45.8043 49.3083 43.9289 47.4095C42.0536 45.5107 41 42.9353 41 40.25C41 37.5647 42.0536 34.9894 43.9289 33.0905C45.8043 31.1917 48.3478 30.125 51 30.125C53.6522 30.125 56.1957 31.1917 58.0711 33.0905C59.9464 34.9894 61 37.5647 61 40.25C61 42.9353 59.9464 45.5107 58.0711 47.4095C56.1957 49.3083 53.6522 50.375 51 50.375Z" fill="#5429BD"/>
<path d="M7.35 103.42H7.77V106H0.645V105.58L1.47 105.475C1.63 105.455 1.725 105.415 1.755 105.355C1.785 105.285 1.8 105.08 1.8 104.74V97.06C1.8 96.72 1.785 96.52 1.755 96.46C1.725 96.39 1.63 96.345 1.47 96.325L0.645 96.22V95.8H4.755V96.22L3.93 96.325C3.77 96.345 3.675 96.39 3.645 96.46C3.615 96.52 3.6 96.72 3.6 97.06V105.475H6.06C6.3 105.475 6.47 105.47 6.57 105.46C6.67 105.44 6.735 105.405 6.765 105.355C6.805 105.295 6.84 105.205 6.87 105.085L7.35 103.42ZM17.8834 102.04V102.34C17.8834 103.49 17.5834 104.415 16.9834 105.115C16.3934 105.805 15.5484 106.15 14.4484 106.15C13.3484 106.15 12.4984 105.805 11.8984 105.115C11.3084 104.415 11.0134 103.49 11.0134 102.34V102.04C11.0134 100.89 11.3084 99.97 11.8984 99.28C12.4984 98.59 13.3484 98.245 14.4484 98.245C15.5484 98.245 16.3934 98.59 16.9834 99.28C17.5834 99.97 17.8834 100.89 17.8834 102.04ZM16.0384 101.74C16.0384 100.67 15.9034 99.91 15.6334 99.46C15.3634 99 14.9684 98.77 14.4484 98.77C13.9384 98.77 13.5434 99 13.2634 99.46C12.9934 99.91 12.8584 100.67 12.8584 101.74V102.64C12.8584 103.7 12.9934 104.465 13.2634 104.935C13.5434 105.395 13.9384 105.625 14.4484 105.625C14.9684 105.625 15.3634 105.395 15.6334 104.935C15.9034 104.465 16.0384 103.7 16.0384 102.64V101.74ZM24.9713 98.77C24.4913 98.77 24.1313 99 23.8913 99.46C23.6613 99.91 23.5463 100.67 23.5463 101.74V102.64C23.5463 103.7 23.6813 104.465 23.9513 104.935C24.2213 105.395 24.6613 105.625 25.2713 105.625C25.7213 105.625 26.0863 105.5 26.3663 105.25C26.6563 104.99 26.8213 104.555 26.8613 103.945L27.8213 104.215C27.6413 104.915 27.3113 105.415 26.8313 105.715C26.3613 106.005 25.8063 106.15 25.1663 106.15C24.0163 106.15 23.1513 105.805 22.5713 105.115C21.9913 104.415 21.7013 103.49 21.7013 102.34V102.04C21.7013 100.89 21.9813 99.97 22.5413 99.28C23.1013 98.59 23.9113 98.245 24.9713 98.245C25.6713 98.245 26.2413 98.385 26.6813 98.665C27.1313 98.935 27.4463 99.295 27.6263 99.745C27.8163 100.185 27.8663 100.66 27.7763 101.17L26.1263 101.41C26.2363 100.57 26.1913 99.92 25.9913 99.46C25.7913 99 25.4513 98.77 24.9713 98.77ZM38.6952 105.625C38.5352 105.775 38.3402 105.9 38.1102 106C37.8902 106.1 37.6202 106.15 37.3002 106.15C36.8902 106.15 36.5452 106.06 36.2652 105.88C35.9952 105.7 35.8152 105.445 35.7252 105.115C35.3952 105.475 35.0302 105.74 34.6302 105.91C34.2402 106.07 33.8402 106.15 33.4302 106.15C32.7402 106.15 32.2252 105.96 31.8852 105.58C31.5452 105.19 31.3752 104.705 31.3752 104.125C31.3752 103.535 31.5902 103.06 32.0202 102.7C32.4502 102.33 33.2102 102.145 34.3002 102.145H35.6652V100.93C35.6652 100.1 35.5552 99.535 35.3352 99.235C35.1252 98.925 34.8302 98.77 34.4502 98.77C34.2002 98.77 33.9702 98.835 33.7602 98.965C33.5502 99.085 33.4002 99.315 33.3102 99.655C33.2302 99.985 33.2452 100.465 33.3552 101.095L31.7052 100.855C31.6252 100.395 31.6752 99.97 31.8552 99.58C32.0452 99.18 32.3602 98.86 32.8002 98.62C33.2402 98.37 33.8002 98.245 34.4802 98.245C35.2502 98.245 35.8452 98.37 36.2652 98.62C36.6852 98.87 36.9752 99.2 37.1352 99.61C37.3052 100.02 37.3902 100.46 37.3902 100.93V104.395C37.3902 104.905 37.4352 105.225 37.5252 105.355C37.6152 105.485 37.7152 105.55 37.8252 105.55C38.0052 105.55 38.2052 105.445 38.4252 105.235L38.6952 105.625ZM34.0902 105.355C34.3502 105.355 34.6052 105.29 34.8552 105.16C35.1152 105.02 35.3852 104.765 35.6652 104.395V102.67H34.5402C34.0502 102.67 33.6952 102.785 33.4752 103.015C33.2552 103.245 33.1452 103.605 33.1452 104.095C33.1452 104.495 33.2252 104.805 33.3852 105.025C33.5452 105.245 33.7802 105.355 34.0902 105.355ZM41.2615 95.32V94.9H44.1415V104.74C44.1415 105.08 44.1565 105.285 44.1865 105.355C44.2165 105.415 44.3115 105.455 44.4715 105.475L45.2965 105.58V106H41.2615V105.58L42.0865 105.475C42.2465 105.455 42.3415 105.415 42.3715 105.355C42.4015 105.285 42.4165 105.08 42.4165 104.74V96.16C42.4165 95.82 42.4015 95.62 42.3715 95.56C42.3415 95.49 42.2465 95.445 42.0865 95.425L41.2615 95.32ZM50.1382 97.105C49.8282 97.105 49.5782 97.01 49.3882 96.82C49.1982 96.62 49.1032 96.365 49.1032 96.055C49.1032 95.745 49.1982 95.495 49.3882 95.305C49.5782 95.115 49.8282 95.02 50.1382 95.02C50.4382 95.02 50.6882 95.115 50.8882 95.305C51.0882 95.495 51.1882 95.745 51.1882 96.055C51.1882 96.365 51.0882 96.62 50.8882 96.82C50.6882 97.01 50.4382 97.105 50.1382 97.105ZM48.1282 98.815V98.395H51.0082V104.74C51.0082 105.08 51.0232 105.285 51.0532 105.355C51.0832 105.415 51.1782 105.455 51.3382 105.475L52.1632 105.58V106H48.1282V105.58L48.9532 105.475C49.1132 105.455 49.2082 105.415 49.2382 105.355C49.2682 105.285 49.2832 105.08 49.2832 104.74V99.655C49.2832 99.315 49.2682 99.115 49.2382 99.055C49.2082 98.985 49.1132 98.94 48.9532 98.92L48.1282 98.815ZM60.6025 103.72H61.0225V106H55.2175V105.625L58.9825 98.92H57.0325C56.8025 98.92 56.6325 98.93 56.5225 98.95C56.4225 98.96 56.3575 98.995 56.3275 99.055C56.2975 99.105 56.2625 99.19 56.2225 99.31L55.8175 100.675H55.3975V98.395H60.8725V98.77L57.1075 105.475H59.3875C59.6275 105.475 59.7975 105.47 59.8975 105.46C59.9975 105.44 60.0625 105.405 60.0925 105.355C60.1325 105.295 60.1675 105.205 60.1975 105.085L60.6025 103.72ZM71.8651 105.625C71.7051 105.775 71.5101 105.9 71.2801 106C71.0601 106.1 70.7901 106.15 70.4701 106.15C70.0601 106.15 69.7151 106.06 69.4351 105.88C69.1651 105.7 68.9851 105.445 68.8951 105.115C68.5651 105.475 68.2001 105.74 67.8001 105.91C67.4101 106.07 67.0101 106.15 66.6001 106.15C65.9101 106.15 65.3951 105.96 65.0551 105.58C64.7151 105.19 64.5451 104.705 64.5451 104.125C64.5451 103.535 64.7601 103.06 65.1901 102.7C65.6201 102.33 66.3801 102.145 67.4701 102.145H68.8351V100.93C68.8351 100.1 68.7251 99.535 68.5051 99.235C68.2951 98.925 68.0001 98.77 67.6201 98.77C67.3701 98.77 67.1401 98.835 66.9301 98.965C66.7201 99.085 66.5701 99.315 66.4801 99.655C66.4001 99.985 66.4151 100.465 66.5251 101.095L64.8751 100.855C64.7951 100.395 64.8451 99.97 65.0251 99.58C65.2151 99.18 65.5301 98.86 65.9701 98.62C66.4101 98.37 66.9701 98.245 67.6501 98.245C68.4201 98.245 69.0151 98.37 69.4351 98.62C69.8551 98.87 70.1451 99.2 70.3051 99.61C70.4751 100.02 70.5601 100.46 70.5601 100.93V104.395C70.5601 104.905 70.6051 105.225 70.6951 105.355C70.7851 105.485 70.8851 105.55 70.9951 105.55C71.1751 105.55 71.3751 105.445 71.5951 105.235L71.8651 105.625ZM67.2601 105.355C67.5201 105.355 67.7751 105.29 68.0251 105.16C68.2851 105.02 68.5551 104.765 68.8351 104.395V102.67H67.7101C67.2201 102.67 66.8651 102.785 66.6451 103.015C66.4251 103.245 66.3151 103.605 66.3151 104.095C66.3151 104.495 66.3951 104.805 66.5551 105.025C66.7151 105.245 66.9501 105.355 67.2601 105.355ZM80.1614 108.1C80.1614 108.49 79.9914 108.795 79.6514 109.015C79.3214 109.235 78.8964 109.345 78.3764 109.345C77.9664 109.345 77.6064 109.255 77.2964 109.075C76.9864 108.905 76.7914 108.605 76.7114 108.175L77.5364 107.965C77.5764 108.295 77.6564 108.525 77.7764 108.655C77.9064 108.795 78.0664 108.865 78.2564 108.865C78.4864 108.865 78.6514 108.79 78.7514 108.64C78.8614 108.5 78.9164 108.32 78.9164 108.1C78.9164 107.87 78.8614 107.68 78.7514 107.53C78.6414 107.38 78.4364 107.305 78.1364 107.305C78.0964 107.305 78.0464 107.305 77.9864 107.305C77.9364 107.315 77.8864 107.325 77.8364 107.335L77.6414 106.945L77.9714 106.135C76.9714 106.035 76.2214 105.645 75.7214 104.965C75.2314 104.285 74.9864 103.41 74.9864 102.34V102.04C74.9864 100.89 75.2664 99.97 75.8264 99.28C76.3864 98.59 77.1964 98.245 78.2564 98.245C78.9564 98.245 79.5264 98.385 79.9664 98.665C80.4164 98.935 80.7314 99.295 80.9114 99.745C81.1014 100.185 81.1514 100.66 81.0614 101.17L79.4114 101.41C79.5214 100.57 79.4764 99.92 79.2764 99.46C79.0764 99 78.7364 98.77 78.2564 98.77C77.7764 98.77 77.4164 99 77.1764 99.46C76.9464 99.91 76.8314 100.67 76.8314 101.74V102.64C76.8314 103.7 76.9664 104.465 77.2364 104.935C77.5064 105.395 77.9464 105.625 78.5564 105.625C79.0064 105.625 79.3714 105.5 79.6514 105.25C79.9414 104.99 80.1064 104.555 80.1464 103.945L81.1064 104.215C80.9364 104.895 80.6214 105.385 80.1614 105.685C79.7114 105.975 79.1814 106.13 78.5714 106.15L78.2864 106.825C78.8564 106.835 79.3114 106.95 79.6514 107.17C79.9914 107.4 80.1614 107.71 80.1614 108.1ZM91.9804 105.625C91.8204 105.775 91.6254 105.9 91.3954 106C91.1754 106.1 90.9054 106.15 90.5854 106.15C90.1754 106.15 89.8304 106.06 89.5504 105.88C89.2804 105.7 89.1004 105.445 89.0104 105.115C88.6804 105.475 88.3154 105.74 87.9154 105.91C87.5254 106.07 87.1254 106.15 86.7154 106.15C86.0254 106.15 85.5104 105.96 85.1704 105.58C84.8304 105.19 84.6604 104.705 84.6604 104.125C84.6604 103.535 84.8754 103.06 85.3054 102.7C85.7354 102.33 86.4954 102.145 87.5854 102.145H88.9504V100.93C88.9504 100.1 88.8404 99.535 88.6204 99.235C88.4104 98.925 88.1154 98.77 87.7354 98.77C87.4854 98.77 87.2554 98.835 87.0454 98.965C86.8354 99.085 86.6854 99.315 86.5954 99.655C86.5154 99.985 86.5304 100.465 86.6404 101.095L84.9904 100.855C84.9104 100.395 84.9604 99.97 85.1404 99.58C85.3304 99.18 85.6454 98.86 86.0854 98.62C86.5254 98.37 87.0854 98.245 87.7654 98.245C88.5354 98.245 89.1304 98.37 89.5504 98.62C89.9704 98.87 90.2604 99.2 90.4204 99.61C90.5904 100.02 90.6754 100.46 90.6754 100.93V104.395C90.6754 104.905 90.7204 105.225 90.8104 105.355C90.9004 105.485 91.0004 105.55 91.1104 105.55C91.2904 105.55 91.4904 105.445 91.7104 105.235L91.9804 105.625ZM87.3754 105.355C87.6354 105.355 87.8904 105.29 88.1404 105.16C88.4004 105.02 88.6704 104.765 88.9504 104.395V102.67H87.8254C87.3354 102.67 86.9804 102.785 86.7604 103.015C86.5404 103.245 86.4304 103.605 86.4304 104.095C86.4304 104.495 86.5104 104.805 86.6704 105.025C86.8304 105.245 87.0654 105.355 87.3754 105.355ZM88.7104 97.255C88.4904 97.255 88.2854 97.195 88.0954 97.075C87.9154 96.945 87.7454 96.8 87.5854 96.64C87.4254 96.47 87.2704 96.325 87.1204 96.205C86.9804 96.075 86.8404 96.01 86.7004 96.01C86.5304 96.01 86.3954 96.105 86.2954 96.295C86.2054 96.475 86.1354 96.77 86.0854 97.18H85.5454C85.6254 96.38 85.7704 95.79 85.9804 95.41C86.1904 95.02 86.4904 94.825 86.8804 94.825C87.1004 94.825 87.3004 94.89 87.4804 95.02C87.6604 95.14 87.8304 95.285 87.9904 95.455C88.1504 95.615 88.3004 95.76 88.4404 95.89C88.5804 96.01 88.7254 96.07 88.8754 96.07C89.0454 96.07 89.1754 95.975 89.2654 95.785C89.3554 95.595 89.4254 95.3 89.4754 94.9H90.0154C89.9354 95.7 89.7904 96.295 89.5804 96.685C89.3804 97.065 89.0904 97.255 88.7104 97.255ZM101.957 102.04V102.34C101.957 103.49 101.657 104.415 101.057 105.115C100.467 105.805 99.6216 106.15 98.5216 106.15C97.4216 106.15 96.5716 105.805 95.9716 105.115C95.3816 104.415 95.0866 103.49 95.0866 102.34V102.04C95.0866 100.89 95.3816 99.97 95.9716 99.28C96.5716 98.59 97.4216 98.245 98.5216 98.245C99.6216 98.245 100.467 98.59 101.057 99.28C101.657 99.97 101.957 100.89 101.957 102.04ZM100.112 101.74C100.112 100.67 99.9766 99.91 99.7066 99.46C99.4366 99 99.0416 98.77 98.5216 98.77C98.0116 98.77 97.6166 99 97.3366 99.46C97.0666 99.91 96.9316 100.67 96.9316 101.74V102.64C96.9316 103.7 97.0666 104.465 97.3366 104.935C97.6166 105.395 98.0116 105.625 98.5216 105.625C99.0416 105.625 99.4366 105.395 99.7066 104.935C99.9766 104.465 100.112 103.7 100.112 102.64V101.74Z" fill="#5429BD"/>
<path d="M10.876 129.12C9.908 129.12 9.18 128.788 8.692 128.124C8.204 127.452 7.96 126.548 7.96 125.412V124.416C7.96 123.672 8.072 123.024 8.296 122.472C8.52 121.912 8.844 121.48 9.268 121.176C9.7 120.872 10.224 120.72 10.84 120.72C11.432 120.72 11.916 120.84 12.292 121.08C12.676 121.312 12.948 121.616 13.108 121.992C13.268 122.368 13.308 122.772 13.228 123.204L12.448 123.396C12.536 122.652 12.44 122.08 12.16 121.68C11.888 121.28 11.456 121.08 10.864 121.08C10.2 121.08 9.696 121.292 9.352 121.716C9.008 122.14 8.836 122.84 8.836 123.816V126.012C8.836 126.98 9.012 127.68 9.364 128.112C9.716 128.544 10.232 128.76 10.912 128.76C11.176 128.76 11.432 128.716 11.68 128.628C11.928 128.532 12.14 128.376 12.316 128.16C12.492 127.944 12.6 127.648 12.64 127.272L13.312 127.428C13.136 128.044 12.824 128.48 12.376 128.736C11.936 128.992 11.436 129.12 10.876 129.12ZM21.452 125.952V126.192C21.452 127.08 21.232 127.792 20.792 128.328C20.36 128.856 19.748 129.12 18.956 129.12C18.156 129.12 17.54 128.856 17.108 128.328C16.676 127.792 16.46 127.08 16.46 126.192V125.952C16.46 125.072 16.676 124.368 17.108 123.84C17.54 123.304 18.156 123.036 18.956 123.036C19.756 123.036 20.372 123.304 20.804 123.84C21.236 124.368 21.452 125.072 21.452 125.952ZM20.636 125.712C20.636 124.88 20.492 124.288 20.204 123.936C19.916 123.576 19.5 123.396 18.956 123.396C18.42 123.396 18.004 123.576 17.708 123.936C17.42 124.288 17.276 124.88 17.276 125.712V126.432C17.276 127.256 17.42 127.852 17.708 128.22C18.004 128.58 18.42 128.76 18.956 128.76C19.5 128.76 19.916 128.58 20.204 128.22C20.492 127.852 20.636 127.256 20.636 126.432V125.712ZM30.9406 128.7V129H28.3726V128.7L29.0326 128.64C29.1606 128.624 29.2366 128.592 29.2606 128.544C29.2846 128.496 29.2966 128.332 29.2966 128.052V125.088C29.2966 124.472 29.1966 124.044 28.9966 123.804C28.8046 123.564 28.5246 123.444 28.1566 123.444C27.8606 123.444 27.5486 123.52 27.2206 123.672C26.9006 123.824 26.5726 124.112 26.2366 124.536V128.052C26.2366 128.332 26.2486 128.496 26.2726 128.544C26.2966 128.592 26.3726 128.624 26.5006 128.64L27.1606 128.7V129H24.5926V128.7L25.2526 128.64C25.3806 128.624 25.4566 128.592 25.4806 128.544C25.5046 128.496 25.5166 128.332 25.5166 128.052V124.104C25.5166 123.824 25.5046 123.66 25.4806 123.612C25.4566 123.556 25.3806 123.524 25.2526 123.516L24.5926 123.456V123.156H26.1886V124.092C26.5086 123.716 26.8446 123.448 27.1966 123.288C27.5566 123.12 27.9126 123.036 28.2646 123.036C28.6886 123.036 29.0366 123.136 29.3086 123.336C29.5806 123.528 29.7766 123.808 29.8966 124.176C30.2246 123.776 30.5726 123.488 30.9406 123.312C31.3086 123.128 31.6766 123.036 32.0446 123.036C32.6126 123.036 33.0446 123.216 33.3406 123.576C33.6446 123.928 33.7966 124.428 33.7966 125.076V128.052C33.7966 128.332 33.8086 128.496 33.8326 128.544C33.8566 128.592 33.9326 128.624 34.0606 128.64L34.7206 128.7V129H32.1526V128.7L32.8126 128.64C32.9406 128.624 33.0166 128.592 33.0406 128.544C33.0646 128.496 33.0766 128.332 33.0766 128.052V125.088C33.0766 124.472 32.9766 124.044 32.7766 123.804C32.5846 123.564 32.3046 123.444 31.9366 123.444C31.6406 123.444 31.3246 123.524 30.9886 123.684C30.6606 123.844 30.3246 124.14 29.9806 124.572C30.0046 124.724 30.0166 124.892 30.0166 125.076V128.052C30.0166 128.332 30.0286 128.496 30.0526 128.544C30.0766 128.592 30.1526 128.624 30.2806 128.64L30.9406 128.7ZM42.7122 125.952V126.192C42.7122 127.08 42.4922 127.792 42.0522 128.328C41.6202 128.856 41.0082 129.12 40.2162 129.12C39.4162 129.12 38.8002 128.856 38.3682 128.328C37.9362 127.792 37.7202 127.08 37.7202 126.192V125.952C37.7202 125.072 37.9362 124.368 38.3682 123.84C38.8002 123.304 39.4162 123.036 40.2162 123.036C41.0162 123.036 41.6322 123.304 42.0642 123.84C42.4962 124.368 42.7122 125.072 42.7122 125.952ZM41.8962 125.712C41.8962 124.88 41.7522 124.288 41.4642 123.936C41.1762 123.576 40.7602 123.396 40.2162 123.396C39.6802 123.396 39.2642 123.576 38.9682 123.936C38.6802 124.288 38.5362 124.88 38.5362 125.712V126.432C38.5362 127.256 38.6802 127.852 38.9682 128.22C39.2642 128.58 39.6802 128.76 40.2162 128.76C40.7602 128.76 41.1762 128.58 41.4642 128.22C41.7522 127.852 41.8962 127.256 41.8962 126.432V125.712ZM53.1303 123.396C52.6423 123.396 52.2583 123.576 51.9783 123.936C51.7063 124.288 51.5703 124.88 51.5703 125.712V126.432C51.5703 127.256 51.6983 127.852 51.9543 128.22C52.2183 128.58 52.6503 128.76 53.2503 128.76C53.6343 128.76 53.9423 128.668 54.1743 128.484C54.4143 128.3 54.5863 127.976 54.6903 127.512L55.2423 127.668C55.0983 128.204 54.8303 128.58 54.4383 128.796C54.0543 129.012 53.6383 129.12 53.1903 129.12C52.3743 129.12 51.7623 128.856 51.3543 128.328C50.9543 127.792 50.7543 127.08 50.7543 126.192V125.952C50.7543 125.072 50.9543 124.368 51.3543 123.84C51.7623 123.304 52.3543 123.036 53.1303 123.036C53.6103 123.036 54.0103 123.132 54.3303 123.324C54.6583 123.508 54.8943 123.764 55.0383 124.092C55.1823 124.412 55.2223 124.776 55.1583 125.184L54.4743 125.292C54.5623 124.676 54.4903 124.208 54.2583 123.888C54.0263 123.56 53.6503 123.396 53.1303 123.396ZM64.6378 128.7V129H62.0698V128.7L62.7298 128.64C62.8578 128.624 62.9338 128.592 62.9578 128.544C62.9818 128.496 62.9938 128.332 62.9938 128.052V125.088C62.9938 124.472 62.8898 124.044 62.6818 123.804C62.4738 123.564 62.1778 123.444 61.7938 123.444C61.4898 123.444 61.1698 123.52 60.8338 123.672C60.4978 123.824 60.1578 124.112 59.8138 124.536V128.052C59.8138 128.332 59.8258 128.496 59.8498 128.544C59.8738 128.592 59.9498 128.624 60.0778 128.64L60.7378 128.7V129H58.1698V128.7L58.8298 128.64C58.9578 128.624 59.0338 128.592 59.0578 128.544C59.0818 128.496 59.0938 128.332 59.0938 128.052V121.068C59.0938 120.788 59.0818 120.624 59.0578 120.576C59.0338 120.52 58.9578 120.488 58.8298 120.48L58.1698 120.42V120.12H59.8138V124.032C60.1338 123.68 60.4738 123.428 60.8338 123.276C61.1938 123.116 61.5498 123.036 61.9018 123.036C62.4938 123.036 62.9418 123.216 63.2458 123.576C63.5578 123.928 63.7138 124.428 63.7138 125.076V128.052C63.7138 128.332 63.7258 128.496 63.7498 128.544C63.7738 128.592 63.8498 128.624 63.9778 128.64L64.6378 128.7ZM72.2508 127.668C72.1068 128.204 71.8348 128.58 71.4348 128.796C71.0428 129.012 70.6148 129.12 70.1508 129.12C69.3188 129.12 68.6948 128.856 68.2788 128.328C67.8708 127.792 67.6668 127.08 67.6668 126.192V125.952C67.6668 125.072 67.8668 124.368 68.2668 123.84C68.6748 123.304 69.2668 123.036 70.0428 123.036C70.4508 123.036 70.8268 123.12 71.1708 123.288C71.5148 123.456 71.7908 123.708 71.9988 124.044C72.2068 124.38 72.3108 124.808 72.3108 125.328C72.3108 125.552 72.2868 125.796 72.2388 126.06H68.4828V126.432C68.4828 127.256 68.6148 127.852 68.8788 128.22C69.1508 128.58 69.5948 128.76 70.2108 128.76C70.6028 128.76 70.9228 128.668 71.1708 128.484C71.4188 128.3 71.5948 127.976 71.6988 127.512L72.2508 127.668ZM70.0428 123.396C69.5148 123.396 69.1228 123.576 68.8668 123.936C68.6108 124.288 68.4828 124.876 68.4828 125.7H71.5308C71.5388 125.604 71.5428 125.52 71.5428 125.448C71.5508 125.368 71.5548 125.296 71.5548 125.232C71.5548 124.576 71.4148 124.108 71.1348 123.828C70.8548 123.54 70.4908 123.396 70.0428 123.396ZM80.8361 129.756C80.8361 130.388 80.6081 130.864 80.1521 131.184C79.6961 131.512 79.0641 131.676 78.2561 131.676C77.3601 131.676 76.7121 131.516 76.3121 131.196C75.9201 130.876 75.7281 130.472 75.7361 129.984L76.3601 129.804C76.3361 130.26 76.4641 130.624 76.7441 130.896C77.0321 131.176 77.5361 131.316 78.2561 131.316C78.8801 131.316 79.3841 131.2 79.7681 130.968C80.1521 130.744 80.3441 130.408 80.3441 129.96C80.3441 129.632 80.2321 129.38 80.0081 129.204C79.7921 129.036 79.4361 128.952 78.9401 128.952H77.4761C77.0121 128.952 76.6761 128.844 76.4681 128.628C76.2601 128.412 76.1561 128.164 76.1561 127.884C76.1561 127.444 76.3721 127.048 76.8041 126.696C76.5001 126.536 76.2521 126.316 76.0601 126.036C75.8761 125.756 75.7841 125.412 75.7841 125.004C75.7841 124.564 75.8841 124.2 76.0841 123.912C76.2841 123.616 76.5481 123.396 76.8761 123.252C77.2121 123.108 77.5841 123.036 77.9921 123.036H78.1961C78.6441 123.036 79.0361 123.12 79.3721 123.288L81.1121 122.844L81.2321 123.552H79.7801C79.9721 123.712 80.1201 123.916 80.2241 124.164C80.3361 124.404 80.3921 124.684 80.3921 125.004C80.3921 125.42 80.2921 125.776 80.0921 126.072C79.9001 126.36 79.6361 126.58 79.3001 126.732C78.9721 126.876 78.6041 126.948 78.1961 126.948H77.9921C77.6961 126.948 77.4281 126.912 77.1881 126.84C76.8681 127.064 76.7081 127.328 76.7081 127.632C76.7081 127.808 76.7641 127.956 76.8761 128.076C76.9961 128.188 77.1841 128.244 77.4401 128.244H79.0001C79.5921 128.244 80.0441 128.372 80.3561 128.628C80.6761 128.876 80.8361 129.252 80.8361 129.756ZM78.1961 126.588C78.4441 126.588 78.6721 126.544 78.8801 126.456C79.0881 126.36 79.2561 126.2 79.3841 125.976C79.5121 125.744 79.5761 125.42 79.5761 125.004C79.5761 124.58 79.5121 124.252 79.3841 124.02C79.2561 123.788 79.0881 123.628 78.8801 123.54C78.6721 123.444 78.4441 123.396 78.1961 123.396H77.9921C77.7441 123.396 77.5121 123.444 77.2961 123.54C77.0881 123.628 76.9201 123.788 76.7921 124.02C76.6641 124.252 76.6001 124.58 76.6001 125.004C76.6001 125.42 76.6641 125.744 76.7921 125.976C76.9201 126.2 77.0881 126.36 77.2961 126.456C77.5121 126.544 77.7441 126.588 77.9921 126.588H78.1961ZM88.6709 129.06C88.3989 129.06 88.1749 128.984 87.9989 128.832C87.8229 128.672 87.7149 128.452 87.6749 128.172C87.3789 128.508 87.0589 128.752 86.7149 128.904C86.3709 129.048 86.0309 129.12 85.6949 129.12C85.1349 129.12 84.7229 128.964 84.4589 128.652C84.2029 128.332 84.0749 127.96 84.0749 127.536C84.0749 127.064 84.2309 126.696 84.5429 126.432C84.8549 126.168 85.3869 126.036 86.1389 126.036H87.6629V125.064C87.6629 124.424 87.5389 123.988 87.2909 123.756C87.0429 123.516 86.7069 123.396 86.2829 123.396C86.0109 123.396 85.7709 123.444 85.5629 123.54C85.3549 123.628 85.2029 123.796 85.1069 124.044C85.0109 124.284 84.9869 124.632 85.0349 125.088L84.3389 124.968C84.2909 124.408 84.4349 123.948 84.7709 123.588C85.1069 123.22 85.6189 123.036 86.3069 123.036C86.8589 123.036 87.2829 123.132 87.5789 123.324C87.8829 123.508 88.0909 123.756 88.2029 124.068C88.3229 124.372 88.3829 124.704 88.3829 125.064V127.716C88.3829 128.124 88.4349 128.38 88.5389 128.484C88.6509 128.588 88.7709 128.64 88.8989 128.64C88.9629 128.64 89.0389 128.624 89.1269 128.592C89.2149 128.56 89.3029 128.504 89.3909 128.424L89.6069 128.712C89.4949 128.816 89.3629 128.9 89.2109 128.964C89.0589 129.028 88.8789 129.06 88.6709 129.06ZM85.8989 128.7C86.1309 128.7 86.3949 128.636 86.6909 128.508C86.9949 128.38 87.3189 128.096 87.6629 127.656V126.396H86.2349C85.7469 126.396 85.3909 126.484 85.1669 126.66C84.9429 126.828 84.8309 127.1 84.8309 127.476C84.8309 127.86 84.9189 128.16 85.0949 128.376C85.2709 128.592 85.5389 128.7 85.8989 128.7ZM92.0668 123.456V123.156H93.6628V124.092C93.9668 123.716 94.2588 123.448 94.5388 123.288C94.8188 123.12 95.0948 123.036 95.3668 123.036C95.9188 123.036 96.3428 123.32 96.6388 123.888L96.0508 124.296C95.9228 124.032 95.7828 123.844 95.6308 123.732C95.4868 123.62 95.3108 123.564 95.1028 123.564C94.8788 123.564 94.6628 123.636 94.4548 123.78C94.2468 123.916 93.9988 124.184 93.7108 124.584V128.052C93.7108 128.332 93.7228 128.5 93.7468 128.556C93.7708 128.604 93.8468 128.632 93.9748 128.64L94.8748 128.7V129H92.0668V128.7L92.7268 128.64C92.8548 128.624 92.9308 128.592 92.9548 128.544C92.9788 128.496 92.9908 128.332 92.9908 128.052V124.104C92.9908 123.824 92.9788 123.66 92.9548 123.612C92.9308 123.556 92.8548 123.524 92.7268 123.516L92.0668 123.456Z" fill="#5429BD"/>
<line y1="111.5" x2="103" y2="111.5" stroke="#5429BD"/>
<circle cx="51.5" cy="45.5" r="43" stroke="#5429BD" stroke-width="5"/>
</svg>
