<svg width="128" height="89" viewBox="0 0 128 89" fill="none" xmlns="http://www.w3.org/2000/svg">
<path fill-rule="evenodd" clip-rule="evenodd" d="M63.0055 27.3762C63.669 27.2618 64.1795 27.0253 64.537 26.6668C64.8945 26.3083 65.0511 25.9326 65.0069 25.5397C64.9671 25.1861 64.7353 24.894 64.3115 24.6632C63.927 24.4279 63.3025 24.359 62.4382 24.4562C61.6962 24.5795 60.9348 24.884 60.154 25.3697C59.3687 25.8162 58.599 26.4001 57.8447 27.1215C58.5391 27.2821 59.1679 27.3904 59.7312 27.4463C60.2945 27.5023 60.9122 27.5123 61.5846 27.4765C61.8242 27.1312 62.0486 26.8275 62.2578 26.5652C62.5019 26.2593 62.7526 26.0122 63.0099 25.8241L63.3834 25.9611C63.2484 26.1753 63.1155 26.409 62.9849 26.6624C62.8543 26.9158 62.7041 27.1715 62.5341 27.4293L63.0055 27.3762Z" fill="#6548AC"/>
<path fill-rule="evenodd" clip-rule="evenodd" d="M63.0055 27.3762C63.669 27.2618 64.1795 27.0253 64.537 26.6668C64.8945 26.3083 65.0511 25.9326 65.0069 25.5397C64.9671 25.1861 64.7353 24.894 64.3115 24.6632C63.927 24.4279 63.3025 24.359 62.4382 24.4562C61.6962 24.5795 60.9348 24.884 60.154 25.3697C59.3687 25.8162 58.599 26.4001 57.8447 27.1215C58.5391 27.2821 59.1679 27.3904 59.7312 27.4463C60.2945 27.5023 60.9122 27.5123 61.5846 27.4765C61.8242 27.1312 62.0486 26.8275 62.2578 26.5652C62.5019 26.2593 62.7526 26.0122 63.0099 25.8241L63.3834 25.9611C63.2484 26.1753 63.1155 26.409 62.9849 26.6624C62.8543 26.9158 62.7041 27.1715 62.5341 27.4293L63.0055 27.3762Z" fill="#6548AC"/>
<path fill-rule="evenodd" clip-rule="evenodd" d="M63.0055 27.3762C63.669 27.2618 64.1795 27.0253 64.537 26.6668C64.8945 26.3083 65.0511 25.9326 65.0069 25.5397C64.9671 25.1861 64.7353 24.894 64.3115 24.6632C63.927 24.4279 63.3025 24.359 62.4382 24.4562C61.6962 24.5795 60.9348 24.884 60.154 25.3697C59.3687 25.8162 58.599 26.4001 57.8447 27.1215C58.5391 27.2821 59.1679 27.3904 59.7312 27.4463C60.2945 27.5023 60.9122 27.5123 61.5846 27.4765C61.8242 27.1312 62.0486 26.8275 62.2578 26.5652C62.5019 26.2593 62.7526 26.0122 63.0099 25.8241L63.3834 25.9611C63.2484 26.1753 63.1155 26.409 62.9849 26.6624C62.8543 26.9158 62.7041 27.1715 62.5341 27.4293L63.0055 27.3762Z" fill="#6548AC"/>
<path fill-rule="evenodd" clip-rule="evenodd" d="M63.0055 27.3762C63.669 27.2618 64.1795 27.0253 64.537 26.6668C64.8945 26.3083 65.0511 25.9326 65.0069 25.5397C64.9671 25.1861 64.7353 24.894 64.3115 24.6632C63.927 24.4279 63.3025 24.359 62.4382 24.4562C61.6962 24.5795 60.9348 24.884 60.154 25.3697C59.3687 25.8162 58.599 26.4001 57.8447 27.1215C58.5391 27.2821 59.1679 27.3904 59.7312 27.4463C60.2945 27.5023 60.9122 27.5123 61.5846 27.4765C61.8242 27.1312 62.0486 26.8275 62.2578 26.5652C62.5019 26.2593 62.7526 26.0122 63.0099 25.8241L63.3834 25.9611C63.2484 26.1753 63.1155 26.409 62.9849 26.6624C62.8543 26.9158 62.7041 27.1715 62.5341 27.4293L63.0055 27.3762Z" fill="#6548AC"/>
<path fill-rule="evenodd" clip-rule="evenodd" d="M63.0055 27.3762C63.669 27.2618 64.1795 27.0253 64.537 26.6668C64.8945 26.3083 65.0511 25.9326 65.0069 25.5397C64.9671 25.1861 64.7353 24.894 64.3115 24.6632C63.927 24.4279 63.3025 24.359 62.4382 24.4562C61.6962 24.5795 60.9348 24.884 60.154 25.3697C59.3687 25.8162 58.599 26.4001 57.8447 27.1215C58.5391 27.2821 59.1679 27.3904 59.7312 27.4463C60.2945 27.5023 60.9122 27.5123 61.5846 27.4765C61.8242 27.1312 62.0486 26.8275 62.2578 26.5652C62.5019 26.2593 62.7526 26.0122 63.0099 25.8241L63.3834 25.9611C63.2484 26.1753 63.1155 26.409 62.9849 26.6624C62.8543 26.9158 62.7041 27.1715 62.5341 27.4293L63.0055 27.3762Z" fill="#FFF1FF"/>
<path fill-rule="evenodd" clip-rule="evenodd" d="M63.0055 27.3762C63.669 27.2618 64.1795 27.0253 64.537 26.6668C64.8945 26.3083 65.0511 25.9326 65.0069 25.5397C64.9671 25.1861 64.7353 24.894 64.3115 24.6632C63.927 24.4279 63.3025 24.359 62.4382 24.4562C61.6962 24.5795 60.9348 24.884 60.154 25.3697C59.3687 25.8162 58.599 26.4001 57.8447 27.1215C58.5391 27.2821 59.1679 27.3904 59.7312 27.4463C60.2945 27.5023 60.9122 27.5123 61.5846 27.4765C61.8242 27.1312 62.0486 26.8275 62.2578 26.5652C62.5019 26.2593 62.7526 26.0122 63.0099 25.8241L63.3834 25.9611C63.2484 26.1753 63.1155 26.409 62.9849 26.6624C62.8543 26.9158 62.7041 27.1715 62.5341 27.4293L63.0055 27.3762Z" fill="#6548AC"/>
<path fill-rule="evenodd" clip-rule="evenodd" d="M63.0055 27.3762C63.669 27.2618 64.1795 27.0253 64.537 26.6668C64.8945 26.3083 65.0511 25.9326 65.0069 25.5397C64.9671 25.1861 64.7353 24.894 64.3115 24.6632C63.927 24.4279 63.3025 24.359 62.4382 24.4562C61.6962 24.5795 60.9348 24.884 60.154 25.3697C59.3687 25.8162 58.599 26.4001 57.8447 27.1215C58.5391 27.2821 59.1679 27.3904 59.7312 27.4463C60.2945 27.5023 60.9122 27.5123 61.5846 27.4765C61.8242 27.1312 62.0486 26.8275 62.2578 26.5652C62.5019 26.2593 62.7526 26.0122 63.0099 25.8241L63.3834 25.9611C63.2484 26.1753 63.1155 26.409 62.9849 26.6624C62.8543 26.9158 62.7041 27.1715 62.5341 27.4293L63.0055 27.3762Z" fill="#6548AC"/>
<path fill-rule="evenodd" clip-rule="evenodd" d="M63.0055 27.3762C63.669 27.2618 64.1795 27.0253 64.537 26.6668C64.8945 26.3083 65.0511 25.9326 65.0069 25.5397C64.9671 25.1861 64.7353 24.894 64.3115 24.6632C63.927 24.4279 63.3025 24.359 62.4382 24.4562C61.6962 24.5795 60.9348 24.884 60.154 25.3697C59.3687 25.8162 58.599 26.4001 57.8447 27.1215C58.5391 27.2821 59.1679 27.3904 59.7312 27.4463C60.2945 27.5023 60.9122 27.5123 61.5846 27.4765C61.8242 27.1312 62.0486 26.8275 62.2578 26.5652C62.5019 26.2593 62.7526 26.0122 63.0099 25.8241L63.3834 25.9611C63.2484 26.1753 63.1155 26.409 62.9849 26.6624C62.8543 26.9158 62.7041 27.1715 62.5341 27.4293L63.0055 27.3762Z" fill="#6548AC"/>
<path fill-rule="evenodd" clip-rule="evenodd" d="M63.0055 27.3762C63.669 27.2618 64.1795 27.0253 64.537 26.6668C64.8945 26.3083 65.0511 25.9326 65.0069 25.5397C64.9671 25.1861 64.7353 24.894 64.3115 24.6632C63.927 24.4279 63.3025 24.359 62.4382 24.4562C61.6962 24.5795 60.9348 24.884 60.154 25.3697C59.3687 25.8162 58.599 26.4001 57.8447 27.1215C58.5391 27.2821 59.1679 27.3904 59.7312 27.4463C60.2945 27.5023 60.9122 27.5123 61.5846 27.4765C61.8242 27.1312 62.0486 26.8275 62.2578 26.5652C62.5019 26.2593 62.7526 26.0122 63.0099 25.8241L63.3834 25.9611C63.2484 26.1753 63.1155 26.409 62.9849 26.6624C62.8543 26.9158 62.7041 27.1715 62.5341 27.4293L63.0055 27.3762Z" fill="#6548AC"/>
<path fill-rule="evenodd" clip-rule="evenodd" d="M63.0055 27.3762C63.669 27.2618 64.1795 27.0253 64.537 26.6668C64.8945 26.3083 65.0511 25.9326 65.0069 25.5397C64.9671 25.1861 64.7353 24.894 64.3115 24.6632C63.927 24.4279 63.3025 24.359 62.4382 24.4562C61.6962 24.5795 60.9348 24.884 60.154 25.3697C59.3687 25.8162 58.599 26.4001 57.8447 27.1215C58.5391 27.2821 59.1679 27.3904 59.7312 27.4463C60.2945 27.5023 60.9122 27.5123 61.5846 27.4765C61.8242 27.1312 62.0486 26.8275 62.2578 26.5652C62.5019 26.2593 62.7526 26.0122 63.0099 25.8241L63.3834 25.9611C63.2484 26.1753 63.1155 26.409 62.9849 26.6624C62.8543 26.9158 62.7041 27.1715 62.5341 27.4293L63.0055 27.3762Z" fill="#6548AC"/>
<path fill-rule="evenodd" clip-rule="evenodd" d="M63.0055 27.3762C63.669 27.2618 64.1795 27.0253 64.537 26.6668C64.8945 26.3083 65.0511 25.9326 65.0069 25.5397C64.9671 25.1861 64.7353 24.894 64.3115 24.6632C63.927 24.4279 63.3025 24.359 62.4382 24.4562C61.6962 24.5795 60.9348 24.884 60.154 25.3697C59.3687 25.8162 58.599 26.4001 57.8447 27.1215C58.5391 27.2821 59.1679 27.3904 59.7312 27.4463C60.2945 27.5023 60.9122 27.5123 61.5846 27.4765C61.8242 27.1312 62.0486 26.8275 62.2578 26.5652C62.5019 26.2593 62.7526 26.0122 63.0099 25.8241L63.3834 25.9611C63.2484 26.1753 63.1155 26.409 62.9849 26.6624C62.8543 26.9158 62.7041 27.1715 62.5341 27.4293L63.0055 27.3762Z" fill="#6548AC"/>
<path fill-rule="evenodd" clip-rule="evenodd" d="M63.0055 27.3762C63.669 27.2618 64.1795 27.0253 64.537 26.6668C64.8945 26.3083 65.0511 25.9326 65.0069 25.5397C64.9671 25.1861 64.7353 24.894 64.3115 24.6632C63.927 24.4279 63.3025 24.359 62.4382 24.4562C61.6962 24.5795 60.9348 24.884 60.154 25.3697C59.3687 25.8162 58.599 26.4001 57.8447 27.1215C58.5391 27.2821 59.1679 27.3904 59.7312 27.4463C60.2945 27.5023 60.9122 27.5123 61.5846 27.4765C61.8242 27.1312 62.0486 26.8275 62.2578 26.5652C62.5019 26.2593 62.7526 26.0122 63.0099 25.8241L63.3834 25.9611C63.2484 26.1753 63.1155 26.409 62.9849 26.6624C62.8543 26.9158 62.7041 27.1715 62.5341 27.4293L63.0055 27.3762Z" fill="#6548AC"/>
<path fill-rule="evenodd" clip-rule="evenodd" d="M63.0055 27.3762C63.669 27.2618 64.1795 27.0253 64.537 26.6668C64.8945 26.3083 65.0511 25.9326 65.0069 25.5397C64.9671 25.1861 64.7353 24.894 64.3115 24.6632C63.927 24.4279 63.3025 24.359 62.4382 24.4562C61.6962 24.5795 60.9348 24.884 60.154 25.3697C59.3687 25.8162 58.599 26.4001 57.8447 27.1215C58.5391 27.2821 59.1679 27.3904 59.7312 27.4463C60.2945 27.5023 60.9122 27.5123 61.5846 27.4765C61.8242 27.1312 62.0486 26.8275 62.2578 26.5652C62.5019 26.2593 62.7526 26.0122 63.0099 25.8241L63.3834 25.9611C63.2484 26.1753 63.1155 26.409 62.9849 26.6624C62.8543 26.9158 62.7041 27.1715 62.5341 27.4293L63.0055 27.3762Z" fill="#6548AC"/>
<path fill-rule="evenodd" clip-rule="evenodd" d="M63.0055 27.3762C63.669 27.2618 64.1795 27.0253 64.537 26.6668C64.8945 26.3083 65.0511 25.9326 65.0069 25.5397C64.9671 25.1861 64.7353 24.894 64.3115 24.6632C63.927 24.4279 63.3025 24.359 62.4382 24.4562C61.6962 24.5795 60.9348 24.884 60.154 25.3697C59.3687 25.8162 58.599 26.4001 57.8447 27.1215C58.5391 27.2821 59.1679 27.3904 59.7312 27.4463C60.2945 27.5023 60.9122 27.5123 61.5846 27.4765C61.8242 27.1312 62.0486 26.8275 62.2578 26.5652C62.5019 26.2593 62.7526 26.0122 63.0099 25.8241L63.3834 25.9611C63.2484 26.1753 63.1155 26.409 62.9849 26.6624C62.8543 26.9158 62.7041 27.1715 62.5341 27.4293L63.0055 27.3762Z" fill="#6548AC"/>
<path fill-rule="evenodd" clip-rule="evenodd" d="M63.0055 27.3762C63.669 27.2618 64.1795 27.0253 64.537 26.6668C64.8945 26.3083 65.0511 25.9326 65.0069 25.5397C64.9671 25.1861 64.7353 24.894 64.3115 24.6632C63.927 24.4279 63.3025 24.359 62.4382 24.4562C61.6962 24.5795 60.9348 24.884 60.154 25.3697C59.3687 25.8162 58.599 26.4001 57.8447 27.1215C58.5391 27.2821 59.1679 27.3904 59.7312 27.4463C60.2945 27.5023 60.9122 27.5123 61.5846 27.4765C61.8242 27.1312 62.0486 26.8275 62.2578 26.5652C62.5019 26.2593 62.7526 26.0122 63.0099 25.8241L63.3834 25.9611C63.2484 26.1753 63.1155 26.409 62.9849 26.6624C62.8543 26.9158 62.7041 27.1715 62.5341 27.4293L63.0055 27.3762Z" fill="#6548AC"/>
<path fill-rule="evenodd" clip-rule="evenodd" d="M87.3696 15.7199C87.0199 15.9039 86.6634 16.114 86.3002 16.3502C85.5233 16.8555 84.7155 17.4802 83.877 18.2242C82.2854 19.6367 80.6419 21.2937 78.9462 23.1952C77.2898 25.0924 75.6663 27.1052 74.0758 29.2336C72.5201 31.3184 71.0756 33.3309 69.7424 35.2713C68.4091 37.2116 67.2676 38.9116 66.3179 40.3711C65.4075 41.8262 64.7694 42.8728 64.4035 43.5107C63.8069 44.5724 63.0359 45.8527 62.0906 47.3516C61.1846 48.8461 60.1259 50.3974 58.9144 52.0058C57.7379 53.5704 56.4739 55.0653 55.1224 56.4906C53.7665 57.8764 52.3667 59.0485 50.923 60.0067C49.4748 60.9255 48.0238 61.4668 46.5702 61.6304C45.7845 61.7188 45.3828 61.6844 45.3651 61.5273C45.343 61.3308 45.5741 61.086 46.0583 60.7928C46.5424 60.4996 46.8543 60.2656 46.9938 60.0908C47.1725 59.9116 47.4534 59.4025 47.8364 58.5637C48.2194 57.7249 48.6634 56.7201 49.1681 55.5493C49.7078 54.3348 50.243 53.081 50.7739 51.788C51.344 50.4906 51.8465 49.3002 52.2816 48.2168C52.7123 47.0941 53.0298 46.203 53.234 45.5435C53.4167 45.0455 53.7538 44.1522 54.2453 42.8636C54.7324 41.5356 55.3393 40.0351 56.0661 38.3619C56.7885 36.6494 57.5501 34.9326 58.351 33.2113C59.1868 31.4463 60.0272 29.8995 60.8723 28.5711C60.5929 28.5628 60.2719 28.5393 59.9095 28.5005C59.5471 28.4616 59.165 28.4252 58.7633 28.3907L56.9946 28.0527C55.8568 29.2549 54.7607 30.6514 53.7064 32.2421C52.6522 33.8327 51.6808 35.4539 50.7925 37.1054C49.939 38.7133 49.175 40.2316 48.5002 41.6601C47.8255 43.0887 47.2792 44.2443 46.8614 45.1268C45.9082 47.2631 44.7044 49.6463 43.2499 52.2767C41.7953 54.9071 40.1247 57.5616 38.2381 60.2406C36.3515 62.9196 34.2855 65.4199 32.0403 67.7413C29.8344 70.0583 27.4643 71.9762 24.9298 73.4947C22.3997 75.0525 19.7793 75.9839 17.0685 76.289C14.5934 76.5676 12.5019 76.3653 10.7938 75.6823C9.08581 74.9993 7.76155 74.0144 6.82106 72.7278C5.88057 71.4411 5.32853 70.071 5.16495 68.6174C5.03231 67.4388 5.10938 66.3559 5.39614 65.3688C5.97408 63.4339 7.20715 61.664 9.09532 60.059C10.9835 58.454 13.4009 57.4858 16.3474 57.1542C16.701 57.1144 17.0568 57.0943 17.4148 57.0937C17.812 57.0888 19.2006 57.2309 19.5238 57.2741C20.9037 57.5167 22.1991 58.0672 23.4096 58.9256C21.2247 57.5402 18.352 57.6447 15.7463 58.1767C13.6469 58.6119 11.9235 59.3827 10.576 60.4892C9.22405 61.5564 8.25002 62.7999 7.65388 64.2196C7.05775 65.6393 6.84148 67.0761 7.00506 68.5297C7.2217 70.4547 8.56712 72.5113 9.99231 73.8628C10.8228 74.5252 11.7927 75.0128 12.9021 75.3257C14.0115 75.6385 15.2733 75.7152 16.6877 75.5561C18.7306 75.3262 20.6964 74.5878 22.5851 73.3408C24.4782 72.1332 26.2748 70.5982 27.9749 68.7359C29.675 66.8736 31.2743 64.8237 32.7731 62.5863C34.2719 60.3489 35.6679 58.0831 36.9614 55.7892C38.2504 53.456 39.4151 51.2561 40.4557 49.1896C41.5356 47.1186 42.4695 45.3426 43.2577 43.8614C44.8949 40.733 46.6239 37.7138 48.4447 34.8035C50.2656 31.8932 52.2815 29.4783 54.4923 27.5585C11.3543 21.7306 23.0258 43.8614 27.9091 45.6561C29.3029 46.3744 30.923 46.6298 32.7695 46.422C34.616 46.2142 36.3505 45.5416 37.973 44.4042C39.5912 43.2275 40.8377 41.7544 41.7128 39.985C42.5834 38.1763 42.8207 36.22 42.4249 34.1161C42.3104 33.4526 41.9974 32.7917 41.4856 32.1332C41.0132 31.4702 40.3841 31.1829 39.5983 31.2714C39.4018 31.2935 39.1902 31.357 38.9633 31.4622C38.7364 31.5673 38.5948 31.7224 38.5383 31.9277C38.5123 32.05 38.4403 32.1178 38.3225 32.1311C38.126 32.1532 38.0079 31.9874 37.9681 31.6338C37.9062 31.0838 38.0519 30.6099 38.4049 30.2121C38.7973 29.8099 39.2489 29.5801 39.7595 29.5226C40.3096 29.4607 40.8709 29.676 41.4435 30.1686C42.0555 30.6567 43.0559 32.6526 43.2499 34.0233C43.5982 36.4109 43.3784 38.5244 42.5908 40.3636C32.1103 62.6494 3.93367 31.4138 35.6684 24.6958L35.6833 24.6949C38.9633 23.9743 43.3777 24.1027 48.7457 25.281C51.2306 25.7971 53.4536 26.2829 55.4145 26.7386C56.4787 25.9425 57.5779 25.2817 58.7123 24.7562C59.8467 24.2307 61.0425 23.8972 62.2997 23.7557C63.3997 23.6319 64.2513 23.7748 64.8544 24.1843C65.4968 24.5894 65.8511 25.0867 65.9174 25.676C65.9881 26.3046 65.6987 26.914 65.049 27.5043C64.4385 28.0902 63.4043 28.4453 61.9463 28.5696C61.0624 30.2604 60.2944 32.0974 59.6423 34.0805C58.9903 36.0635 58.4167 38.0377 57.9218 40.0031C57.4661 41.964 57.0932 43.7764 56.803 45.4402C56.4392 47.5102 56.0054 49.4886 55.5016 51.3753C55.037 53.2577 54.2013 55.0227 52.9943 56.6704C55.2223 54.5497 57.2032 52.1784 58.9372 49.5565C60.7104 46.9301 62.2806 44.2668 63.6477 41.5668C64.5576 39.7537 65.679 37.6979 67.0117 35.3995C68.3399 33.0619 69.8254 30.7065 71.4681 28.3336C73.1062 25.9213 74.8211 23.6595 76.6125 21.5482C78.4387 19.3932 80.3049 17.5919 82.2107 16.144C84.1121 14.657 86.0258 13.2001 87.8547 12.8352C88.1882 12.7686 87.5438 14.7592 87.2616 15.2073C87.1723 15.2497 87.5961 15.6034 87.5059 15.6493C87.4368 15.6817 87.3792 15.7098 87.3696 15.7199ZM63.0055 27.3762C63.669 27.2618 64.1795 27.0253 64.537 26.6668C64.8945 26.3083 65.0511 25.9326 65.0069 25.5397C64.9671 25.1861 64.7353 24.894 64.3115 24.6632C63.927 24.4279 63.3025 24.359 62.4382 24.4562C61.6962 24.5795 60.9348 24.884 60.154 25.3697C59.3687 25.8162 58.599 26.4001 57.8447 27.1215C58.5391 27.2821 59.1679 27.3904 59.7312 27.4463C60.2945 27.5023 60.9122 27.5123 61.5846 27.4765C61.8242 27.1312 62.0486 26.8275 62.2578 26.5652C62.5019 26.2593 62.7526 26.0122 63.0099 25.8241L63.3834 25.9611C63.2484 26.1753 63.1155 26.409 62.9849 26.6624C62.8543 26.9158 62.7041 27.1715 62.5341 27.4293L63.0055 27.3762Z" fill="#6548AC"/>
<path fill-rule="evenodd" clip-rule="evenodd" d="M77.5864 67.0598C78.5586 64.4525 79.4148 61.645 80.1549 58.6373C80.8742 55.5831 81.4746 52.3857 81.9561 49.0452L82.2656 46.8978C82.5239 45.0122 82.8584 42.5215 83.1929 40.0297L83.1973 39.9972C83.4098 38.4146 83.6222 36.8326 83.8151 35.4058C84.3598 31.7023 84.9588 28.0588 85.6122 24.4749C86.2655 20.8911 87.4245 16.5536 88.2878 13.8268C88.8159 12.3649 89.3668 11.1444 89.9403 10.1653C91.14 8.07203 92.3374 6.48252 93.5339 5.39613C94.756 4.24257 95.9051 3.42847 96.981 2.95385C97.9166 2.54111 98.7963 2.32062 99.6214 2.29177C100.447 2.26291 101.139 2.3766 101.699 2.63221L102.105 2.034C101.671 1.5552 100.926 1.32524 99.8731 1.34287C98.7995 1.31375 97.607 1.58848 96.2982 2.16582C94.9895 2.74316 93.6763 3.62967 92.3602 4.82468C91.0234 5.97296 89.8175 7.48243 88.7438 9.35249C88.295 10.109 87.8683 10.9117 87.4607 11.7618C87.0802 12.5441 86.6862 13.3603 86.2786 14.2104C84.9104 17.4393 83.284 21.983 82.3406 25.4154C81.397 28.848 80.7009 31.892 80.2526 34.5476L78.7032 43.1908C77.9507 46.93 76.8992 51.8904 76.0066 55.6915C75.1607 59.4719 74.1855 63.086 73.0812 66.5336C71.6892 70.7225 69.5712 75.7345 67.6844 78.8011C65.8648 81.894 63.786 83.9561 61.4482 84.9874C59.9986 85.6268 58.5608 85.7864 57.1348 85.4658C55.7086 85.1453 54.0108 83.8435 54.0365 82.8108C53.2877 79.784 54.2529 78.0582 56.168 74.9757C51.5863 78.7331 51.9721 80.9616 52.0864 81.6221C52.1064 81.7379 52.1181 81.8055 52.0933 81.8247L52.2625 82.588L52.5719 83.2894C53.3557 85.0662 54.6318 86.123 56.4004 86.4601C58.1894 86.8439 59.8762 86.7421 61.4605 86.1549C65.003 84.8156 68.0602 82.6291 70.6321 79.5954C73.2039 76.5618 75.8617 71.5072 77.5864 67.0598Z" fill="#6548AC"/>
<path d="M89.3784 71.6456C93.3715 69.8841 97.0392 67.3844 100.381 64.1467C103.799 60.9407 106.653 57.2982 108.942 53.2186C111.231 49.1391 112.795 44.8898 113.633 40.4705C114.472 36.0513 114.282 31.7589 113.064 27.5939C112.737 26.4318 108.611 14.6142 87.8547 14.0212C84.7414 13.5658 89.0407 12.8351 88.1523 12.6217C106.831 13.4282 112.169 21.7305 114.719 25.8281C116.311 29.4365 117.043 33.1304 116.913 36.9104C116.812 40.6125 116.032 44.2546 114.577 47.8357C113.122 51.4167 111.146 54.8029 108.65 57.9938C106.131 61.1299 103.235 63.9746 99.9631 66.5285C96.7428 69.0594 93.3176 71.1255 89.6875 72.7269C88.5464 73.2302 87.4074 73.6674 86.2701 74.0384C85.157 74.4642 82.0375 75.1871 80.852 75.4489C79.7701 75.665 81.2447 75.3969 80.0906 75.4489C82.1264 75.008 87.4595 72.4921 89.3784 71.6456Z" fill="#6548AC"/>
</svg>
