<svg width="42" height="42" viewBox="0 0 42 42" fill="none" xmlns="http://www.w3.org/2000/svg">
<path d="M23.7548 1.1418C22.2324 -0.380601 19.765 -0.380601 18.2426 1.1418L10.6227 8.76433L20.9987 19.1429L31.3773 8.76433L23.7521 1.1418H23.7548ZM33.2304 10.6201L22.8571 20.9987L33.2357 31.3773L40.8582 23.7521C42.3806 22.2297 42.3806 19.765 40.8582 18.2452L33.2357 10.6201H33.2304ZM31.3773 33.2304L20.9987 22.8571L10.6201 33.2357L18.2452 40.8582C19.7676 42.3806 22.2324 42.3806 23.7521 40.8582L31.3773 33.2357V33.2304ZM8.76695 31.3773L19.1403 20.9987L8.76433 10.6201L1.1418 18.2452C-0.380601 19.7676 -0.380601 22.2324 1.1418 23.7521L8.76695 31.3773Z" fill="#5429BD"/>
</svg>
